G75*
%MOIN*%
%OFA0B0*%
%FSLAX25Y25*%
%IPPOS*%
%LPD*%
%AMOC8*
5,1,8,0,0,1.08239X$1,22.5*
%
%ADD10C,0.00600*%
%ADD11C,0.00800*%
%ADD12C,0.00500*%
%ADD13C,0.00400*%
D10*
X0130436Y0144869D02*
X0129368Y0145936D01*
X0129368Y0151274D01*
X0132571Y0151274D01*
X0133638Y0150206D01*
X0133638Y0148071D01*
X0132571Y0147004D01*
X0129368Y0147004D01*
X0130436Y0144869D02*
X0131503Y0144869D01*
X0135813Y0147004D02*
X0135813Y0150206D01*
X0136881Y0151274D01*
X0140084Y0151274D01*
X0140084Y0147004D01*
X0142246Y0147004D02*
X0144381Y0147004D01*
X0143313Y0147004D02*
X0143313Y0151274D01*
X0144381Y0151274D01*
X0146549Y0151274D02*
X0147617Y0151274D01*
X0149752Y0149139D01*
X0149752Y0147004D02*
X0149752Y0151274D01*
X0151927Y0150206D02*
X0151927Y0149139D01*
X0156197Y0149139D01*
X0156197Y0150206D02*
X0155130Y0151274D01*
X0152995Y0151274D01*
X0151927Y0150206D01*
X0152995Y0147004D02*
X0155130Y0147004D01*
X0156197Y0148071D01*
X0156197Y0150206D01*
X0158373Y0150206D02*
X0158373Y0149139D01*
X0162643Y0149139D01*
X0162643Y0150206D02*
X0161575Y0151274D01*
X0159440Y0151274D01*
X0158373Y0150206D01*
X0159440Y0147004D02*
X0161575Y0147004D01*
X0162643Y0148071D01*
X0162643Y0150206D01*
X0164818Y0150206D02*
X0164818Y0147004D01*
X0164818Y0150206D02*
X0165886Y0151274D01*
X0169088Y0151274D01*
X0169088Y0147004D01*
X0171250Y0147004D02*
X0173385Y0147004D01*
X0172318Y0147004D02*
X0172318Y0151274D01*
X0173385Y0151274D01*
X0175561Y0151274D02*
X0178763Y0151274D01*
X0179831Y0150206D01*
X0179831Y0148071D01*
X0178763Y0147004D01*
X0175561Y0147004D01*
X0175561Y0145936D02*
X0175561Y0151274D01*
X0172318Y0153409D02*
X0172318Y0154477D01*
X0182006Y0150206D02*
X0182006Y0147004D01*
X0182006Y0150206D02*
X0183074Y0151274D01*
X0186276Y0151274D01*
X0186276Y0147004D01*
X0188452Y0147004D02*
X0192722Y0147004D01*
X0192722Y0153409D01*
X0188452Y0153409D01*
X0190587Y0150206D02*
X0192722Y0150206D01*
X0201343Y0150206D02*
X0201343Y0147004D01*
X0201343Y0150206D02*
X0202410Y0151274D01*
X0205613Y0151274D01*
X0205613Y0147004D01*
X0207788Y0148071D02*
X0207788Y0150206D01*
X0208856Y0151274D01*
X0210991Y0151274D01*
X0212058Y0150206D01*
X0212058Y0148071D01*
X0210991Y0147004D01*
X0208856Y0147004D01*
X0207788Y0148071D01*
X0214234Y0147004D02*
X0214234Y0153409D01*
X0214234Y0151274D02*
X0217436Y0151274D01*
X0218504Y0150206D01*
X0218504Y0148071D01*
X0217436Y0147004D01*
X0214234Y0147004D01*
X0220679Y0149139D02*
X0224949Y0149139D01*
X0224949Y0150206D02*
X0223882Y0151274D01*
X0221747Y0151274D01*
X0220679Y0150206D01*
X0220679Y0149139D01*
X0221747Y0147004D02*
X0223882Y0147004D01*
X0224949Y0148071D01*
X0224949Y0150206D01*
X0227125Y0151274D02*
X0230327Y0151274D01*
X0231395Y0150206D01*
X0231395Y0148071D01*
X0230327Y0147004D01*
X0227125Y0147004D01*
X0233570Y0147004D02*
X0236773Y0147004D01*
X0237840Y0148071D01*
X0236773Y0149139D01*
X0233570Y0149139D01*
X0233570Y0150206D02*
X0233570Y0147004D01*
X0233570Y0150206D02*
X0234638Y0151274D01*
X0236773Y0151274D01*
X0240016Y0153409D02*
X0240016Y0147004D01*
X0244286Y0147004D02*
X0244286Y0153409D01*
X0242151Y0151274D01*
X0240016Y0153409D01*
X0177696Y0144869D02*
X0176628Y0144869D01*
X0175561Y0145936D01*
X0143313Y0153409D02*
X0143313Y0154477D01*
X0208614Y0079568D02*
X0212884Y0079568D01*
X0208614Y0079568D02*
X0206478Y0077433D01*
X0208614Y0075297D01*
X0212884Y0075297D01*
X0212884Y0073122D02*
X0212884Y0068852D01*
X0209681Y0068852D01*
X0210749Y0070987D01*
X0210749Y0072055D01*
X0209681Y0073122D01*
X0207546Y0073122D01*
X0206478Y0072055D01*
X0206478Y0069919D01*
X0207546Y0068852D01*
X0209681Y0066677D02*
X0209681Y0062406D01*
X0211816Y0064542D02*
X0207546Y0064542D01*
X0206955Y0058711D02*
X0205888Y0057644D01*
X0205888Y0054441D01*
X0212293Y0054441D01*
X0212293Y0057644D01*
X0211226Y0058711D01*
X0206955Y0058711D01*
X0205888Y0052266D02*
X0212293Y0052266D01*
X0212293Y0047996D02*
X0205888Y0052266D01*
X0205888Y0047996D02*
X0212293Y0047996D01*
X0211226Y0045820D02*
X0212293Y0044753D01*
X0212293Y0042618D01*
X0211226Y0041550D01*
X0206955Y0041550D01*
X0205888Y0042618D01*
X0205888Y0044753D01*
X0206955Y0045820D01*
X0209091Y0045820D01*
X0209091Y0043685D01*
D11*
X0211545Y0024780D02*
X0209045Y0022280D01*
X0206545Y0024780D01*
X0201545Y0024780D01*
X0199045Y0022280D01*
X0196545Y0024780D01*
X0191545Y0024780D01*
X0189045Y0022280D01*
X0186545Y0024780D01*
X0181545Y0024780D01*
X0179045Y0022280D01*
X0176545Y0024780D01*
X0171545Y0024780D01*
X0169045Y0022280D01*
X0166545Y0024780D01*
X0161545Y0024780D01*
X0159045Y0022280D01*
X0159045Y0007280D01*
X0161545Y0004780D01*
X0166545Y0004780D01*
X0169045Y0007280D01*
X0169045Y0022280D01*
X0179045Y0022280D02*
X0179045Y0007280D01*
X0181545Y0004780D01*
X0186545Y0004780D01*
X0189045Y0007280D01*
X0189045Y0022280D01*
X0199045Y0022280D02*
X0199045Y0007280D01*
X0201545Y0004780D01*
X0206545Y0004780D01*
X0209045Y0007280D01*
X0209045Y0022280D01*
X0211545Y0024780D02*
X0216545Y0024780D01*
X0219045Y0022280D01*
X0221545Y0024780D01*
X0226545Y0024780D01*
X0229045Y0022280D01*
X0229045Y0017280D01*
X0226545Y0014780D01*
X0229045Y0012280D01*
X0229045Y0007280D01*
X0226545Y0004780D01*
X0221545Y0004780D01*
X0219045Y0007280D01*
X0219045Y0022280D01*
X0219045Y0007280D02*
X0216545Y0004780D01*
X0211545Y0004780D01*
X0209045Y0007280D01*
X0199045Y0007280D02*
X0196545Y0004780D01*
X0191545Y0004780D01*
X0189045Y0007280D01*
X0179045Y0007280D02*
X0176545Y0004780D01*
X0171545Y0004780D01*
X0169045Y0007280D01*
X0159045Y0007280D02*
X0156545Y0004780D01*
X0151545Y0004780D01*
X0149045Y0007280D01*
X0149045Y0022280D01*
X0146545Y0024780D01*
X0141545Y0024780D01*
X0139045Y0022280D01*
X0139045Y0007280D01*
X0141545Y0004780D01*
X0146545Y0004780D01*
X0149045Y0007280D01*
X0139045Y0007280D02*
X0136545Y0004780D01*
X0131545Y0004780D01*
X0129045Y0007280D01*
X0129045Y0022280D01*
X0131545Y0024780D01*
X0136545Y0024780D01*
X0139045Y0022280D01*
X0149045Y0022280D02*
X0151545Y0024780D01*
X0156545Y0024780D01*
X0159045Y0022280D01*
X0129045Y0022280D02*
X0126545Y0024780D01*
X0121545Y0024780D01*
X0119045Y0022280D01*
X0119045Y0007280D01*
X0116545Y0004780D01*
X0111545Y0004780D01*
X0109045Y0007280D01*
X0109045Y0022280D01*
X0111545Y0024780D01*
X0116545Y0024780D01*
X0119045Y0022280D01*
X0109045Y0022280D02*
X0106545Y0024780D01*
X0101545Y0024780D01*
X0099045Y0022280D01*
X0099045Y0007280D01*
X0101545Y0004780D01*
X0106545Y0004780D01*
X0109045Y0007280D01*
X0119045Y0007280D02*
X0121545Y0004780D01*
X0126545Y0004780D01*
X0129045Y0007280D01*
X0099045Y0007280D02*
X0096545Y0004780D01*
X0091545Y0004780D01*
X0089045Y0007280D01*
X0089045Y0022280D01*
X0091545Y0024780D01*
X0096545Y0024780D01*
X0099045Y0022280D01*
X0089045Y0022280D02*
X0086545Y0024780D01*
X0081545Y0024780D01*
X0079045Y0022280D01*
X0079045Y0007280D01*
X0076545Y0004780D01*
X0071545Y0004780D01*
X0069045Y0007280D01*
X0069045Y0022280D01*
X0071545Y0024780D01*
X0076545Y0024780D01*
X0079045Y0022280D01*
X0069045Y0022280D02*
X0066545Y0024780D01*
X0061545Y0024780D01*
X0059045Y0022280D01*
X0059045Y0007280D01*
X0061545Y0004780D01*
X0066545Y0004780D01*
X0069045Y0007280D01*
X0079045Y0007280D02*
X0081545Y0004780D01*
X0086545Y0004780D01*
X0089045Y0007280D01*
X0059045Y0007280D02*
X0056545Y0004780D01*
X0051545Y0004780D01*
X0049045Y0007280D01*
X0049045Y0022280D01*
X0046545Y0024780D01*
X0041545Y0024780D01*
X0039045Y0022280D01*
X0039045Y0007280D01*
X0041545Y0004780D01*
X0046545Y0004780D01*
X0049045Y0007280D01*
X0039045Y0007280D02*
X0036545Y0004780D01*
X0031545Y0004780D01*
X0029045Y0007280D01*
X0029045Y0012280D01*
X0031545Y0014780D01*
X0029045Y0017280D01*
X0029045Y0022280D01*
X0031545Y0024780D01*
X0036545Y0024780D01*
X0039045Y0022280D01*
X0037045Y0026280D02*
X0030545Y0026280D01*
X0049045Y0022280D02*
X0051545Y0024780D01*
X0056545Y0024780D01*
X0059045Y0022280D01*
X0081545Y0112610D02*
X0086545Y0112610D01*
D12*
X0026528Y0005159D02*
X0026528Y0003891D01*
X0026845Y0003574D01*
X0027478Y0003574D01*
X0027795Y0003891D01*
X0027478Y0004525D02*
X0026528Y0004525D01*
X0026528Y0005159D02*
X0026845Y0005475D01*
X0027478Y0005475D01*
X0027795Y0005159D01*
X0027795Y0004842D01*
X0027478Y0004525D01*
X0028737Y0005475D02*
X0029371Y0005475D01*
X0029054Y0005475D02*
X0029054Y0003891D01*
X0029371Y0003574D01*
X0029688Y0003574D01*
X0030005Y0003891D01*
D13*
X0133909Y0078267D02*
X0134677Y0077499D01*
X0136979Y0077499D01*
X0136979Y0082103D01*
X0134677Y0082103D01*
X0133909Y0081336D01*
X0133909Y0080568D01*
X0134677Y0079801D01*
X0136979Y0079801D01*
X0138513Y0079801D02*
X0141583Y0079801D01*
X0143117Y0077499D02*
X0143117Y0082103D01*
X0146186Y0082103D02*
X0146186Y0077499D01*
X0144652Y0079034D01*
X0143117Y0077499D01*
X0147721Y0078267D02*
X0147721Y0081336D01*
X0148488Y0082103D01*
X0150790Y0082103D01*
X0150790Y0077499D01*
X0148488Y0077499D01*
X0147721Y0078267D01*
X0152325Y0078267D02*
X0153092Y0077499D01*
X0154627Y0077499D01*
X0155394Y0078267D01*
X0155394Y0079801D02*
X0153860Y0080568D01*
X0153092Y0080568D01*
X0152325Y0079801D01*
X0152325Y0078267D01*
X0155394Y0079801D02*
X0155394Y0082103D01*
X0152325Y0082103D01*
X0156929Y0079801D02*
X0159998Y0079801D01*
X0157696Y0082103D01*
X0157696Y0077499D01*
X0161533Y0077499D02*
X0164602Y0077499D01*
X0161533Y0080568D01*
X0161533Y0081336D01*
X0162300Y0082103D01*
X0163835Y0082103D01*
X0164602Y0081336D01*
X0166137Y0081336D02*
X0166904Y0082103D01*
X0168439Y0082103D01*
X0169206Y0081336D01*
X0169206Y0080568D01*
X0168439Y0079801D01*
X0166904Y0079801D01*
X0166137Y0079034D01*
X0166137Y0078267D01*
X0166904Y0077499D01*
X0168439Y0077499D01*
X0169206Y0078267D01*
X0170741Y0077499D02*
X0173810Y0077499D01*
X0173810Y0082103D01*
X0176112Y0082103D02*
X0178414Y0079801D01*
X0175345Y0079801D01*
X0176112Y0077499D02*
X0176112Y0082103D01*
X0179949Y0082103D02*
X0179949Y0081336D01*
X0183018Y0078267D01*
X0183018Y0077499D01*
X0183018Y0082103D02*
X0179949Y0082103D01*
X0190920Y0072113D02*
X0190920Y0067509D01*
X0192454Y0067509D02*
X0189385Y0067509D01*
X0192454Y0070578D02*
X0190920Y0072113D01*
X0193989Y0071346D02*
X0194756Y0072113D01*
X0196291Y0072113D01*
X0197058Y0071346D01*
X0197058Y0068276D01*
X0196291Y0067509D01*
X0194756Y0067509D01*
X0193989Y0068276D01*
X0198593Y0067509D02*
X0200128Y0067509D01*
X0199360Y0067509D02*
X0199360Y0072113D01*
X0198593Y0072113D02*
X0200128Y0072113D01*
X0134677Y0079801D02*
X0133909Y0079034D01*
X0133909Y0078267D01*
M02*
