G75*
%MOIN*%
%OFA0B0*%
%FSLAX25Y25*%
%IPPOS*%
%LPD*%
%AMOC8*
5,1,8,0,0,1.08239X$1,22.5*
%
%ADD10C,0.01600*%
%ADD11C,0.00600*%
%ADD12C,0.00400*%
%ADD13C,0.00300*%
%ADD14C,0.00500*%
%ADD15C,0.00200*%
%ADD16R,0.02000X0.00500*%
%ADD17C,0.00800*%
D10*
X0003060Y0014780D02*
X0003064Y0015070D01*
X0003074Y0015360D01*
X0003092Y0015649D01*
X0003117Y0015938D01*
X0003149Y0016226D01*
X0003188Y0016513D01*
X0003234Y0016799D01*
X0003287Y0017084D01*
X0003347Y0017368D01*
X0003414Y0017650D01*
X0003488Y0017930D01*
X0003569Y0018209D01*
X0003656Y0018485D01*
X0003750Y0018759D01*
X0003851Y0019031D01*
X0003959Y0019300D01*
X0004073Y0019566D01*
X0004194Y0019830D01*
X0004321Y0020090D01*
X0004455Y0020348D01*
X0004594Y0020602D01*
X0004740Y0020852D01*
X0004892Y0021099D01*
X0005051Y0021342D01*
X0005215Y0021581D01*
X0005384Y0021816D01*
X0005560Y0022047D01*
X0005741Y0022273D01*
X0005928Y0022495D01*
X0006120Y0022712D01*
X0006317Y0022924D01*
X0006519Y0023132D01*
X0006727Y0023334D01*
X0006939Y0023531D01*
X0007156Y0023723D01*
X0007378Y0023910D01*
X0007604Y0024091D01*
X0007835Y0024267D01*
X0008070Y0024436D01*
X0008309Y0024600D01*
X0008552Y0024759D01*
X0008799Y0024911D01*
X0009049Y0025057D01*
X0009303Y0025196D01*
X0009561Y0025330D01*
X0009821Y0025457D01*
X0010085Y0025578D01*
X0010351Y0025692D01*
X0010620Y0025800D01*
X0010892Y0025901D01*
X0011166Y0025995D01*
X0011442Y0026082D01*
X0011721Y0026163D01*
X0012001Y0026237D01*
X0012283Y0026304D01*
X0012567Y0026364D01*
X0012852Y0026417D01*
X0013138Y0026463D01*
X0013425Y0026502D01*
X0013713Y0026534D01*
X0014002Y0026559D01*
X0014291Y0026577D01*
X0014581Y0026587D01*
X0014871Y0026591D01*
X0015161Y0026587D01*
X0015451Y0026577D01*
X0015740Y0026559D01*
X0016029Y0026534D01*
X0016317Y0026502D01*
X0016604Y0026463D01*
X0016890Y0026417D01*
X0017175Y0026364D01*
X0017459Y0026304D01*
X0017741Y0026237D01*
X0018021Y0026163D01*
X0018300Y0026082D01*
X0018576Y0025995D01*
X0018850Y0025901D01*
X0019122Y0025800D01*
X0019391Y0025692D01*
X0019657Y0025578D01*
X0019921Y0025457D01*
X0020181Y0025330D01*
X0020439Y0025196D01*
X0020693Y0025057D01*
X0020943Y0024911D01*
X0021190Y0024759D01*
X0021433Y0024600D01*
X0021672Y0024436D01*
X0021907Y0024267D01*
X0022138Y0024091D01*
X0022364Y0023910D01*
X0022586Y0023723D01*
X0022803Y0023531D01*
X0023015Y0023334D01*
X0023223Y0023132D01*
X0023425Y0022924D01*
X0023622Y0022712D01*
X0023814Y0022495D01*
X0024001Y0022273D01*
X0024182Y0022047D01*
X0024358Y0021816D01*
X0024527Y0021581D01*
X0024691Y0021342D01*
X0024850Y0021099D01*
X0025002Y0020852D01*
X0025148Y0020602D01*
X0025287Y0020348D01*
X0025421Y0020090D01*
X0025548Y0019830D01*
X0025669Y0019566D01*
X0025783Y0019300D01*
X0025891Y0019031D01*
X0025992Y0018759D01*
X0026086Y0018485D01*
X0026173Y0018209D01*
X0026254Y0017930D01*
X0026328Y0017650D01*
X0026395Y0017368D01*
X0026455Y0017084D01*
X0026508Y0016799D01*
X0026554Y0016513D01*
X0026593Y0016226D01*
X0026625Y0015938D01*
X0026650Y0015649D01*
X0026668Y0015360D01*
X0026678Y0015070D01*
X0026682Y0014780D01*
X0026678Y0014490D01*
X0026668Y0014200D01*
X0026650Y0013911D01*
X0026625Y0013622D01*
X0026593Y0013334D01*
X0026554Y0013047D01*
X0026508Y0012761D01*
X0026455Y0012476D01*
X0026395Y0012192D01*
X0026328Y0011910D01*
X0026254Y0011630D01*
X0026173Y0011351D01*
X0026086Y0011075D01*
X0025992Y0010801D01*
X0025891Y0010529D01*
X0025783Y0010260D01*
X0025669Y0009994D01*
X0025548Y0009730D01*
X0025421Y0009470D01*
X0025287Y0009212D01*
X0025148Y0008958D01*
X0025002Y0008708D01*
X0024850Y0008461D01*
X0024691Y0008218D01*
X0024527Y0007979D01*
X0024358Y0007744D01*
X0024182Y0007513D01*
X0024001Y0007287D01*
X0023814Y0007065D01*
X0023622Y0006848D01*
X0023425Y0006636D01*
X0023223Y0006428D01*
X0023015Y0006226D01*
X0022803Y0006029D01*
X0022586Y0005837D01*
X0022364Y0005650D01*
X0022138Y0005469D01*
X0021907Y0005293D01*
X0021672Y0005124D01*
X0021433Y0004960D01*
X0021190Y0004801D01*
X0020943Y0004649D01*
X0020693Y0004503D01*
X0020439Y0004364D01*
X0020181Y0004230D01*
X0019921Y0004103D01*
X0019657Y0003982D01*
X0019391Y0003868D01*
X0019122Y0003760D01*
X0018850Y0003659D01*
X0018576Y0003565D01*
X0018300Y0003478D01*
X0018021Y0003397D01*
X0017741Y0003323D01*
X0017459Y0003256D01*
X0017175Y0003196D01*
X0016890Y0003143D01*
X0016604Y0003097D01*
X0016317Y0003058D01*
X0016029Y0003026D01*
X0015740Y0003001D01*
X0015451Y0002983D01*
X0015161Y0002973D01*
X0014871Y0002969D01*
X0014581Y0002973D01*
X0014291Y0002983D01*
X0014002Y0003001D01*
X0013713Y0003026D01*
X0013425Y0003058D01*
X0013138Y0003097D01*
X0012852Y0003143D01*
X0012567Y0003196D01*
X0012283Y0003256D01*
X0012001Y0003323D01*
X0011721Y0003397D01*
X0011442Y0003478D01*
X0011166Y0003565D01*
X0010892Y0003659D01*
X0010620Y0003760D01*
X0010351Y0003868D01*
X0010085Y0003982D01*
X0009821Y0004103D01*
X0009561Y0004230D01*
X0009303Y0004364D01*
X0009049Y0004503D01*
X0008799Y0004649D01*
X0008552Y0004801D01*
X0008309Y0004960D01*
X0008070Y0005124D01*
X0007835Y0005293D01*
X0007604Y0005469D01*
X0007378Y0005650D01*
X0007156Y0005837D01*
X0006939Y0006029D01*
X0006727Y0006226D01*
X0006519Y0006428D01*
X0006317Y0006636D01*
X0006120Y0006848D01*
X0005928Y0007065D01*
X0005741Y0007287D01*
X0005560Y0007513D01*
X0005384Y0007744D01*
X0005215Y0007979D01*
X0005051Y0008218D01*
X0004892Y0008461D01*
X0004740Y0008708D01*
X0004594Y0008958D01*
X0004455Y0009212D01*
X0004321Y0009470D01*
X0004194Y0009730D01*
X0004073Y0009994D01*
X0003959Y0010260D01*
X0003851Y0010529D01*
X0003750Y0010801D01*
X0003656Y0011075D01*
X0003569Y0011351D01*
X0003488Y0011630D01*
X0003414Y0011910D01*
X0003347Y0012192D01*
X0003287Y0012476D01*
X0003234Y0012761D01*
X0003188Y0013047D01*
X0003149Y0013334D01*
X0003117Y0013622D01*
X0003092Y0013911D01*
X0003074Y0014200D01*
X0003064Y0014490D01*
X0003060Y0014780D01*
X0003060Y0105331D02*
X0003064Y0105621D01*
X0003074Y0105911D01*
X0003092Y0106200D01*
X0003117Y0106489D01*
X0003149Y0106777D01*
X0003188Y0107064D01*
X0003234Y0107350D01*
X0003287Y0107635D01*
X0003347Y0107919D01*
X0003414Y0108201D01*
X0003488Y0108481D01*
X0003569Y0108760D01*
X0003656Y0109036D01*
X0003750Y0109310D01*
X0003851Y0109582D01*
X0003959Y0109851D01*
X0004073Y0110117D01*
X0004194Y0110381D01*
X0004321Y0110641D01*
X0004455Y0110899D01*
X0004594Y0111153D01*
X0004740Y0111403D01*
X0004892Y0111650D01*
X0005051Y0111893D01*
X0005215Y0112132D01*
X0005384Y0112367D01*
X0005560Y0112598D01*
X0005741Y0112824D01*
X0005928Y0113046D01*
X0006120Y0113263D01*
X0006317Y0113475D01*
X0006519Y0113683D01*
X0006727Y0113885D01*
X0006939Y0114082D01*
X0007156Y0114274D01*
X0007378Y0114461D01*
X0007604Y0114642D01*
X0007835Y0114818D01*
X0008070Y0114987D01*
X0008309Y0115151D01*
X0008552Y0115310D01*
X0008799Y0115462D01*
X0009049Y0115608D01*
X0009303Y0115747D01*
X0009561Y0115881D01*
X0009821Y0116008D01*
X0010085Y0116129D01*
X0010351Y0116243D01*
X0010620Y0116351D01*
X0010892Y0116452D01*
X0011166Y0116546D01*
X0011442Y0116633D01*
X0011721Y0116714D01*
X0012001Y0116788D01*
X0012283Y0116855D01*
X0012567Y0116915D01*
X0012852Y0116968D01*
X0013138Y0117014D01*
X0013425Y0117053D01*
X0013713Y0117085D01*
X0014002Y0117110D01*
X0014291Y0117128D01*
X0014581Y0117138D01*
X0014871Y0117142D01*
X0015161Y0117138D01*
X0015451Y0117128D01*
X0015740Y0117110D01*
X0016029Y0117085D01*
X0016317Y0117053D01*
X0016604Y0117014D01*
X0016890Y0116968D01*
X0017175Y0116915D01*
X0017459Y0116855D01*
X0017741Y0116788D01*
X0018021Y0116714D01*
X0018300Y0116633D01*
X0018576Y0116546D01*
X0018850Y0116452D01*
X0019122Y0116351D01*
X0019391Y0116243D01*
X0019657Y0116129D01*
X0019921Y0116008D01*
X0020181Y0115881D01*
X0020439Y0115747D01*
X0020693Y0115608D01*
X0020943Y0115462D01*
X0021190Y0115310D01*
X0021433Y0115151D01*
X0021672Y0114987D01*
X0021907Y0114818D01*
X0022138Y0114642D01*
X0022364Y0114461D01*
X0022586Y0114274D01*
X0022803Y0114082D01*
X0023015Y0113885D01*
X0023223Y0113683D01*
X0023425Y0113475D01*
X0023622Y0113263D01*
X0023814Y0113046D01*
X0024001Y0112824D01*
X0024182Y0112598D01*
X0024358Y0112367D01*
X0024527Y0112132D01*
X0024691Y0111893D01*
X0024850Y0111650D01*
X0025002Y0111403D01*
X0025148Y0111153D01*
X0025287Y0110899D01*
X0025421Y0110641D01*
X0025548Y0110381D01*
X0025669Y0110117D01*
X0025783Y0109851D01*
X0025891Y0109582D01*
X0025992Y0109310D01*
X0026086Y0109036D01*
X0026173Y0108760D01*
X0026254Y0108481D01*
X0026328Y0108201D01*
X0026395Y0107919D01*
X0026455Y0107635D01*
X0026508Y0107350D01*
X0026554Y0107064D01*
X0026593Y0106777D01*
X0026625Y0106489D01*
X0026650Y0106200D01*
X0026668Y0105911D01*
X0026678Y0105621D01*
X0026682Y0105331D01*
X0026678Y0105041D01*
X0026668Y0104751D01*
X0026650Y0104462D01*
X0026625Y0104173D01*
X0026593Y0103885D01*
X0026554Y0103598D01*
X0026508Y0103312D01*
X0026455Y0103027D01*
X0026395Y0102743D01*
X0026328Y0102461D01*
X0026254Y0102181D01*
X0026173Y0101902D01*
X0026086Y0101626D01*
X0025992Y0101352D01*
X0025891Y0101080D01*
X0025783Y0100811D01*
X0025669Y0100545D01*
X0025548Y0100281D01*
X0025421Y0100021D01*
X0025287Y0099763D01*
X0025148Y0099509D01*
X0025002Y0099259D01*
X0024850Y0099012D01*
X0024691Y0098769D01*
X0024527Y0098530D01*
X0024358Y0098295D01*
X0024182Y0098064D01*
X0024001Y0097838D01*
X0023814Y0097616D01*
X0023622Y0097399D01*
X0023425Y0097187D01*
X0023223Y0096979D01*
X0023015Y0096777D01*
X0022803Y0096580D01*
X0022586Y0096388D01*
X0022364Y0096201D01*
X0022138Y0096020D01*
X0021907Y0095844D01*
X0021672Y0095675D01*
X0021433Y0095511D01*
X0021190Y0095352D01*
X0020943Y0095200D01*
X0020693Y0095054D01*
X0020439Y0094915D01*
X0020181Y0094781D01*
X0019921Y0094654D01*
X0019657Y0094533D01*
X0019391Y0094419D01*
X0019122Y0094311D01*
X0018850Y0094210D01*
X0018576Y0094116D01*
X0018300Y0094029D01*
X0018021Y0093948D01*
X0017741Y0093874D01*
X0017459Y0093807D01*
X0017175Y0093747D01*
X0016890Y0093694D01*
X0016604Y0093648D01*
X0016317Y0093609D01*
X0016029Y0093577D01*
X0015740Y0093552D01*
X0015451Y0093534D01*
X0015161Y0093524D01*
X0014871Y0093520D01*
X0014581Y0093524D01*
X0014291Y0093534D01*
X0014002Y0093552D01*
X0013713Y0093577D01*
X0013425Y0093609D01*
X0013138Y0093648D01*
X0012852Y0093694D01*
X0012567Y0093747D01*
X0012283Y0093807D01*
X0012001Y0093874D01*
X0011721Y0093948D01*
X0011442Y0094029D01*
X0011166Y0094116D01*
X0010892Y0094210D01*
X0010620Y0094311D01*
X0010351Y0094419D01*
X0010085Y0094533D01*
X0009821Y0094654D01*
X0009561Y0094781D01*
X0009303Y0094915D01*
X0009049Y0095054D01*
X0008799Y0095200D01*
X0008552Y0095352D01*
X0008309Y0095511D01*
X0008070Y0095675D01*
X0007835Y0095844D01*
X0007604Y0096020D01*
X0007378Y0096201D01*
X0007156Y0096388D01*
X0006939Y0096580D01*
X0006727Y0096777D01*
X0006519Y0096979D01*
X0006317Y0097187D01*
X0006120Y0097399D01*
X0005928Y0097616D01*
X0005741Y0097838D01*
X0005560Y0098064D01*
X0005384Y0098295D01*
X0005215Y0098530D01*
X0005051Y0098769D01*
X0004892Y0099012D01*
X0004740Y0099259D01*
X0004594Y0099509D01*
X0004455Y0099763D01*
X0004321Y0100021D01*
X0004194Y0100281D01*
X0004073Y0100545D01*
X0003959Y0100811D01*
X0003851Y0101080D01*
X0003750Y0101352D01*
X0003656Y0101626D01*
X0003569Y0101902D01*
X0003488Y0102181D01*
X0003414Y0102461D01*
X0003347Y0102743D01*
X0003287Y0103027D01*
X0003234Y0103312D01*
X0003188Y0103598D01*
X0003149Y0103885D01*
X0003117Y0104173D01*
X0003092Y0104462D01*
X0003074Y0104751D01*
X0003064Y0105041D01*
X0003060Y0105331D01*
X0003060Y0184071D02*
X0003064Y0184361D01*
X0003074Y0184651D01*
X0003092Y0184940D01*
X0003117Y0185229D01*
X0003149Y0185517D01*
X0003188Y0185804D01*
X0003234Y0186090D01*
X0003287Y0186375D01*
X0003347Y0186659D01*
X0003414Y0186941D01*
X0003488Y0187221D01*
X0003569Y0187500D01*
X0003656Y0187776D01*
X0003750Y0188050D01*
X0003851Y0188322D01*
X0003959Y0188591D01*
X0004073Y0188857D01*
X0004194Y0189121D01*
X0004321Y0189381D01*
X0004455Y0189639D01*
X0004594Y0189893D01*
X0004740Y0190143D01*
X0004892Y0190390D01*
X0005051Y0190633D01*
X0005215Y0190872D01*
X0005384Y0191107D01*
X0005560Y0191338D01*
X0005741Y0191564D01*
X0005928Y0191786D01*
X0006120Y0192003D01*
X0006317Y0192215D01*
X0006519Y0192423D01*
X0006727Y0192625D01*
X0006939Y0192822D01*
X0007156Y0193014D01*
X0007378Y0193201D01*
X0007604Y0193382D01*
X0007835Y0193558D01*
X0008070Y0193727D01*
X0008309Y0193891D01*
X0008552Y0194050D01*
X0008799Y0194202D01*
X0009049Y0194348D01*
X0009303Y0194487D01*
X0009561Y0194621D01*
X0009821Y0194748D01*
X0010085Y0194869D01*
X0010351Y0194983D01*
X0010620Y0195091D01*
X0010892Y0195192D01*
X0011166Y0195286D01*
X0011442Y0195373D01*
X0011721Y0195454D01*
X0012001Y0195528D01*
X0012283Y0195595D01*
X0012567Y0195655D01*
X0012852Y0195708D01*
X0013138Y0195754D01*
X0013425Y0195793D01*
X0013713Y0195825D01*
X0014002Y0195850D01*
X0014291Y0195868D01*
X0014581Y0195878D01*
X0014871Y0195882D01*
X0015161Y0195878D01*
X0015451Y0195868D01*
X0015740Y0195850D01*
X0016029Y0195825D01*
X0016317Y0195793D01*
X0016604Y0195754D01*
X0016890Y0195708D01*
X0017175Y0195655D01*
X0017459Y0195595D01*
X0017741Y0195528D01*
X0018021Y0195454D01*
X0018300Y0195373D01*
X0018576Y0195286D01*
X0018850Y0195192D01*
X0019122Y0195091D01*
X0019391Y0194983D01*
X0019657Y0194869D01*
X0019921Y0194748D01*
X0020181Y0194621D01*
X0020439Y0194487D01*
X0020693Y0194348D01*
X0020943Y0194202D01*
X0021190Y0194050D01*
X0021433Y0193891D01*
X0021672Y0193727D01*
X0021907Y0193558D01*
X0022138Y0193382D01*
X0022364Y0193201D01*
X0022586Y0193014D01*
X0022803Y0192822D01*
X0023015Y0192625D01*
X0023223Y0192423D01*
X0023425Y0192215D01*
X0023622Y0192003D01*
X0023814Y0191786D01*
X0024001Y0191564D01*
X0024182Y0191338D01*
X0024358Y0191107D01*
X0024527Y0190872D01*
X0024691Y0190633D01*
X0024850Y0190390D01*
X0025002Y0190143D01*
X0025148Y0189893D01*
X0025287Y0189639D01*
X0025421Y0189381D01*
X0025548Y0189121D01*
X0025669Y0188857D01*
X0025783Y0188591D01*
X0025891Y0188322D01*
X0025992Y0188050D01*
X0026086Y0187776D01*
X0026173Y0187500D01*
X0026254Y0187221D01*
X0026328Y0186941D01*
X0026395Y0186659D01*
X0026455Y0186375D01*
X0026508Y0186090D01*
X0026554Y0185804D01*
X0026593Y0185517D01*
X0026625Y0185229D01*
X0026650Y0184940D01*
X0026668Y0184651D01*
X0026678Y0184361D01*
X0026682Y0184071D01*
X0026678Y0183781D01*
X0026668Y0183491D01*
X0026650Y0183202D01*
X0026625Y0182913D01*
X0026593Y0182625D01*
X0026554Y0182338D01*
X0026508Y0182052D01*
X0026455Y0181767D01*
X0026395Y0181483D01*
X0026328Y0181201D01*
X0026254Y0180921D01*
X0026173Y0180642D01*
X0026086Y0180366D01*
X0025992Y0180092D01*
X0025891Y0179820D01*
X0025783Y0179551D01*
X0025669Y0179285D01*
X0025548Y0179021D01*
X0025421Y0178761D01*
X0025287Y0178503D01*
X0025148Y0178249D01*
X0025002Y0177999D01*
X0024850Y0177752D01*
X0024691Y0177509D01*
X0024527Y0177270D01*
X0024358Y0177035D01*
X0024182Y0176804D01*
X0024001Y0176578D01*
X0023814Y0176356D01*
X0023622Y0176139D01*
X0023425Y0175927D01*
X0023223Y0175719D01*
X0023015Y0175517D01*
X0022803Y0175320D01*
X0022586Y0175128D01*
X0022364Y0174941D01*
X0022138Y0174760D01*
X0021907Y0174584D01*
X0021672Y0174415D01*
X0021433Y0174251D01*
X0021190Y0174092D01*
X0020943Y0173940D01*
X0020693Y0173794D01*
X0020439Y0173655D01*
X0020181Y0173521D01*
X0019921Y0173394D01*
X0019657Y0173273D01*
X0019391Y0173159D01*
X0019122Y0173051D01*
X0018850Y0172950D01*
X0018576Y0172856D01*
X0018300Y0172769D01*
X0018021Y0172688D01*
X0017741Y0172614D01*
X0017459Y0172547D01*
X0017175Y0172487D01*
X0016890Y0172434D01*
X0016604Y0172388D01*
X0016317Y0172349D01*
X0016029Y0172317D01*
X0015740Y0172292D01*
X0015451Y0172274D01*
X0015161Y0172264D01*
X0014871Y0172260D01*
X0014581Y0172264D01*
X0014291Y0172274D01*
X0014002Y0172292D01*
X0013713Y0172317D01*
X0013425Y0172349D01*
X0013138Y0172388D01*
X0012852Y0172434D01*
X0012567Y0172487D01*
X0012283Y0172547D01*
X0012001Y0172614D01*
X0011721Y0172688D01*
X0011442Y0172769D01*
X0011166Y0172856D01*
X0010892Y0172950D01*
X0010620Y0173051D01*
X0010351Y0173159D01*
X0010085Y0173273D01*
X0009821Y0173394D01*
X0009561Y0173521D01*
X0009303Y0173655D01*
X0009049Y0173794D01*
X0008799Y0173940D01*
X0008552Y0174092D01*
X0008309Y0174251D01*
X0008070Y0174415D01*
X0007835Y0174584D01*
X0007604Y0174760D01*
X0007378Y0174941D01*
X0007156Y0175128D01*
X0006939Y0175320D01*
X0006727Y0175517D01*
X0006519Y0175719D01*
X0006317Y0175927D01*
X0006120Y0176139D01*
X0005928Y0176356D01*
X0005741Y0176578D01*
X0005560Y0176804D01*
X0005384Y0177035D01*
X0005215Y0177270D01*
X0005051Y0177509D01*
X0004892Y0177752D01*
X0004740Y0177999D01*
X0004594Y0178249D01*
X0004455Y0178503D01*
X0004321Y0178761D01*
X0004194Y0179021D01*
X0004073Y0179285D01*
X0003959Y0179551D01*
X0003851Y0179820D01*
X0003750Y0180092D01*
X0003656Y0180366D01*
X0003569Y0180642D01*
X0003488Y0180921D01*
X0003414Y0181201D01*
X0003347Y0181483D01*
X0003287Y0181767D01*
X0003234Y0182052D01*
X0003188Y0182338D01*
X0003149Y0182625D01*
X0003117Y0182913D01*
X0003092Y0183202D01*
X0003074Y0183491D01*
X0003064Y0183781D01*
X0003060Y0184071D01*
X0231407Y0184071D02*
X0231411Y0184361D01*
X0231421Y0184651D01*
X0231439Y0184940D01*
X0231464Y0185229D01*
X0231496Y0185517D01*
X0231535Y0185804D01*
X0231581Y0186090D01*
X0231634Y0186375D01*
X0231694Y0186659D01*
X0231761Y0186941D01*
X0231835Y0187221D01*
X0231916Y0187500D01*
X0232003Y0187776D01*
X0232097Y0188050D01*
X0232198Y0188322D01*
X0232306Y0188591D01*
X0232420Y0188857D01*
X0232541Y0189121D01*
X0232668Y0189381D01*
X0232802Y0189639D01*
X0232941Y0189893D01*
X0233087Y0190143D01*
X0233239Y0190390D01*
X0233398Y0190633D01*
X0233562Y0190872D01*
X0233731Y0191107D01*
X0233907Y0191338D01*
X0234088Y0191564D01*
X0234275Y0191786D01*
X0234467Y0192003D01*
X0234664Y0192215D01*
X0234866Y0192423D01*
X0235074Y0192625D01*
X0235286Y0192822D01*
X0235503Y0193014D01*
X0235725Y0193201D01*
X0235951Y0193382D01*
X0236182Y0193558D01*
X0236417Y0193727D01*
X0236656Y0193891D01*
X0236899Y0194050D01*
X0237146Y0194202D01*
X0237396Y0194348D01*
X0237650Y0194487D01*
X0237908Y0194621D01*
X0238168Y0194748D01*
X0238432Y0194869D01*
X0238698Y0194983D01*
X0238967Y0195091D01*
X0239239Y0195192D01*
X0239513Y0195286D01*
X0239789Y0195373D01*
X0240068Y0195454D01*
X0240348Y0195528D01*
X0240630Y0195595D01*
X0240914Y0195655D01*
X0241199Y0195708D01*
X0241485Y0195754D01*
X0241772Y0195793D01*
X0242060Y0195825D01*
X0242349Y0195850D01*
X0242638Y0195868D01*
X0242928Y0195878D01*
X0243218Y0195882D01*
X0243508Y0195878D01*
X0243798Y0195868D01*
X0244087Y0195850D01*
X0244376Y0195825D01*
X0244664Y0195793D01*
X0244951Y0195754D01*
X0245237Y0195708D01*
X0245522Y0195655D01*
X0245806Y0195595D01*
X0246088Y0195528D01*
X0246368Y0195454D01*
X0246647Y0195373D01*
X0246923Y0195286D01*
X0247197Y0195192D01*
X0247469Y0195091D01*
X0247738Y0194983D01*
X0248004Y0194869D01*
X0248268Y0194748D01*
X0248528Y0194621D01*
X0248786Y0194487D01*
X0249040Y0194348D01*
X0249290Y0194202D01*
X0249537Y0194050D01*
X0249780Y0193891D01*
X0250019Y0193727D01*
X0250254Y0193558D01*
X0250485Y0193382D01*
X0250711Y0193201D01*
X0250933Y0193014D01*
X0251150Y0192822D01*
X0251362Y0192625D01*
X0251570Y0192423D01*
X0251772Y0192215D01*
X0251969Y0192003D01*
X0252161Y0191786D01*
X0252348Y0191564D01*
X0252529Y0191338D01*
X0252705Y0191107D01*
X0252874Y0190872D01*
X0253038Y0190633D01*
X0253197Y0190390D01*
X0253349Y0190143D01*
X0253495Y0189893D01*
X0253634Y0189639D01*
X0253768Y0189381D01*
X0253895Y0189121D01*
X0254016Y0188857D01*
X0254130Y0188591D01*
X0254238Y0188322D01*
X0254339Y0188050D01*
X0254433Y0187776D01*
X0254520Y0187500D01*
X0254601Y0187221D01*
X0254675Y0186941D01*
X0254742Y0186659D01*
X0254802Y0186375D01*
X0254855Y0186090D01*
X0254901Y0185804D01*
X0254940Y0185517D01*
X0254972Y0185229D01*
X0254997Y0184940D01*
X0255015Y0184651D01*
X0255025Y0184361D01*
X0255029Y0184071D01*
X0255025Y0183781D01*
X0255015Y0183491D01*
X0254997Y0183202D01*
X0254972Y0182913D01*
X0254940Y0182625D01*
X0254901Y0182338D01*
X0254855Y0182052D01*
X0254802Y0181767D01*
X0254742Y0181483D01*
X0254675Y0181201D01*
X0254601Y0180921D01*
X0254520Y0180642D01*
X0254433Y0180366D01*
X0254339Y0180092D01*
X0254238Y0179820D01*
X0254130Y0179551D01*
X0254016Y0179285D01*
X0253895Y0179021D01*
X0253768Y0178761D01*
X0253634Y0178503D01*
X0253495Y0178249D01*
X0253349Y0177999D01*
X0253197Y0177752D01*
X0253038Y0177509D01*
X0252874Y0177270D01*
X0252705Y0177035D01*
X0252529Y0176804D01*
X0252348Y0176578D01*
X0252161Y0176356D01*
X0251969Y0176139D01*
X0251772Y0175927D01*
X0251570Y0175719D01*
X0251362Y0175517D01*
X0251150Y0175320D01*
X0250933Y0175128D01*
X0250711Y0174941D01*
X0250485Y0174760D01*
X0250254Y0174584D01*
X0250019Y0174415D01*
X0249780Y0174251D01*
X0249537Y0174092D01*
X0249290Y0173940D01*
X0249040Y0173794D01*
X0248786Y0173655D01*
X0248528Y0173521D01*
X0248268Y0173394D01*
X0248004Y0173273D01*
X0247738Y0173159D01*
X0247469Y0173051D01*
X0247197Y0172950D01*
X0246923Y0172856D01*
X0246647Y0172769D01*
X0246368Y0172688D01*
X0246088Y0172614D01*
X0245806Y0172547D01*
X0245522Y0172487D01*
X0245237Y0172434D01*
X0244951Y0172388D01*
X0244664Y0172349D01*
X0244376Y0172317D01*
X0244087Y0172292D01*
X0243798Y0172274D01*
X0243508Y0172264D01*
X0243218Y0172260D01*
X0242928Y0172264D01*
X0242638Y0172274D01*
X0242349Y0172292D01*
X0242060Y0172317D01*
X0241772Y0172349D01*
X0241485Y0172388D01*
X0241199Y0172434D01*
X0240914Y0172487D01*
X0240630Y0172547D01*
X0240348Y0172614D01*
X0240068Y0172688D01*
X0239789Y0172769D01*
X0239513Y0172856D01*
X0239239Y0172950D01*
X0238967Y0173051D01*
X0238698Y0173159D01*
X0238432Y0173273D01*
X0238168Y0173394D01*
X0237908Y0173521D01*
X0237650Y0173655D01*
X0237396Y0173794D01*
X0237146Y0173940D01*
X0236899Y0174092D01*
X0236656Y0174251D01*
X0236417Y0174415D01*
X0236182Y0174584D01*
X0235951Y0174760D01*
X0235725Y0174941D01*
X0235503Y0175128D01*
X0235286Y0175320D01*
X0235074Y0175517D01*
X0234866Y0175719D01*
X0234664Y0175927D01*
X0234467Y0176139D01*
X0234275Y0176356D01*
X0234088Y0176578D01*
X0233907Y0176804D01*
X0233731Y0177035D01*
X0233562Y0177270D01*
X0233398Y0177509D01*
X0233239Y0177752D01*
X0233087Y0177999D01*
X0232941Y0178249D01*
X0232802Y0178503D01*
X0232668Y0178761D01*
X0232541Y0179021D01*
X0232420Y0179285D01*
X0232306Y0179551D01*
X0232198Y0179820D01*
X0232097Y0180092D01*
X0232003Y0180366D01*
X0231916Y0180642D01*
X0231835Y0180921D01*
X0231761Y0181201D01*
X0231694Y0181483D01*
X0231634Y0181767D01*
X0231581Y0182052D01*
X0231535Y0182338D01*
X0231496Y0182625D01*
X0231464Y0182913D01*
X0231439Y0183202D01*
X0231421Y0183491D01*
X0231411Y0183781D01*
X0231407Y0184071D01*
X0231407Y0105331D02*
X0231411Y0105621D01*
X0231421Y0105911D01*
X0231439Y0106200D01*
X0231464Y0106489D01*
X0231496Y0106777D01*
X0231535Y0107064D01*
X0231581Y0107350D01*
X0231634Y0107635D01*
X0231694Y0107919D01*
X0231761Y0108201D01*
X0231835Y0108481D01*
X0231916Y0108760D01*
X0232003Y0109036D01*
X0232097Y0109310D01*
X0232198Y0109582D01*
X0232306Y0109851D01*
X0232420Y0110117D01*
X0232541Y0110381D01*
X0232668Y0110641D01*
X0232802Y0110899D01*
X0232941Y0111153D01*
X0233087Y0111403D01*
X0233239Y0111650D01*
X0233398Y0111893D01*
X0233562Y0112132D01*
X0233731Y0112367D01*
X0233907Y0112598D01*
X0234088Y0112824D01*
X0234275Y0113046D01*
X0234467Y0113263D01*
X0234664Y0113475D01*
X0234866Y0113683D01*
X0235074Y0113885D01*
X0235286Y0114082D01*
X0235503Y0114274D01*
X0235725Y0114461D01*
X0235951Y0114642D01*
X0236182Y0114818D01*
X0236417Y0114987D01*
X0236656Y0115151D01*
X0236899Y0115310D01*
X0237146Y0115462D01*
X0237396Y0115608D01*
X0237650Y0115747D01*
X0237908Y0115881D01*
X0238168Y0116008D01*
X0238432Y0116129D01*
X0238698Y0116243D01*
X0238967Y0116351D01*
X0239239Y0116452D01*
X0239513Y0116546D01*
X0239789Y0116633D01*
X0240068Y0116714D01*
X0240348Y0116788D01*
X0240630Y0116855D01*
X0240914Y0116915D01*
X0241199Y0116968D01*
X0241485Y0117014D01*
X0241772Y0117053D01*
X0242060Y0117085D01*
X0242349Y0117110D01*
X0242638Y0117128D01*
X0242928Y0117138D01*
X0243218Y0117142D01*
X0243508Y0117138D01*
X0243798Y0117128D01*
X0244087Y0117110D01*
X0244376Y0117085D01*
X0244664Y0117053D01*
X0244951Y0117014D01*
X0245237Y0116968D01*
X0245522Y0116915D01*
X0245806Y0116855D01*
X0246088Y0116788D01*
X0246368Y0116714D01*
X0246647Y0116633D01*
X0246923Y0116546D01*
X0247197Y0116452D01*
X0247469Y0116351D01*
X0247738Y0116243D01*
X0248004Y0116129D01*
X0248268Y0116008D01*
X0248528Y0115881D01*
X0248786Y0115747D01*
X0249040Y0115608D01*
X0249290Y0115462D01*
X0249537Y0115310D01*
X0249780Y0115151D01*
X0250019Y0114987D01*
X0250254Y0114818D01*
X0250485Y0114642D01*
X0250711Y0114461D01*
X0250933Y0114274D01*
X0251150Y0114082D01*
X0251362Y0113885D01*
X0251570Y0113683D01*
X0251772Y0113475D01*
X0251969Y0113263D01*
X0252161Y0113046D01*
X0252348Y0112824D01*
X0252529Y0112598D01*
X0252705Y0112367D01*
X0252874Y0112132D01*
X0253038Y0111893D01*
X0253197Y0111650D01*
X0253349Y0111403D01*
X0253495Y0111153D01*
X0253634Y0110899D01*
X0253768Y0110641D01*
X0253895Y0110381D01*
X0254016Y0110117D01*
X0254130Y0109851D01*
X0254238Y0109582D01*
X0254339Y0109310D01*
X0254433Y0109036D01*
X0254520Y0108760D01*
X0254601Y0108481D01*
X0254675Y0108201D01*
X0254742Y0107919D01*
X0254802Y0107635D01*
X0254855Y0107350D01*
X0254901Y0107064D01*
X0254940Y0106777D01*
X0254972Y0106489D01*
X0254997Y0106200D01*
X0255015Y0105911D01*
X0255025Y0105621D01*
X0255029Y0105331D01*
X0255025Y0105041D01*
X0255015Y0104751D01*
X0254997Y0104462D01*
X0254972Y0104173D01*
X0254940Y0103885D01*
X0254901Y0103598D01*
X0254855Y0103312D01*
X0254802Y0103027D01*
X0254742Y0102743D01*
X0254675Y0102461D01*
X0254601Y0102181D01*
X0254520Y0101902D01*
X0254433Y0101626D01*
X0254339Y0101352D01*
X0254238Y0101080D01*
X0254130Y0100811D01*
X0254016Y0100545D01*
X0253895Y0100281D01*
X0253768Y0100021D01*
X0253634Y0099763D01*
X0253495Y0099509D01*
X0253349Y0099259D01*
X0253197Y0099012D01*
X0253038Y0098769D01*
X0252874Y0098530D01*
X0252705Y0098295D01*
X0252529Y0098064D01*
X0252348Y0097838D01*
X0252161Y0097616D01*
X0251969Y0097399D01*
X0251772Y0097187D01*
X0251570Y0096979D01*
X0251362Y0096777D01*
X0251150Y0096580D01*
X0250933Y0096388D01*
X0250711Y0096201D01*
X0250485Y0096020D01*
X0250254Y0095844D01*
X0250019Y0095675D01*
X0249780Y0095511D01*
X0249537Y0095352D01*
X0249290Y0095200D01*
X0249040Y0095054D01*
X0248786Y0094915D01*
X0248528Y0094781D01*
X0248268Y0094654D01*
X0248004Y0094533D01*
X0247738Y0094419D01*
X0247469Y0094311D01*
X0247197Y0094210D01*
X0246923Y0094116D01*
X0246647Y0094029D01*
X0246368Y0093948D01*
X0246088Y0093874D01*
X0245806Y0093807D01*
X0245522Y0093747D01*
X0245237Y0093694D01*
X0244951Y0093648D01*
X0244664Y0093609D01*
X0244376Y0093577D01*
X0244087Y0093552D01*
X0243798Y0093534D01*
X0243508Y0093524D01*
X0243218Y0093520D01*
X0242928Y0093524D01*
X0242638Y0093534D01*
X0242349Y0093552D01*
X0242060Y0093577D01*
X0241772Y0093609D01*
X0241485Y0093648D01*
X0241199Y0093694D01*
X0240914Y0093747D01*
X0240630Y0093807D01*
X0240348Y0093874D01*
X0240068Y0093948D01*
X0239789Y0094029D01*
X0239513Y0094116D01*
X0239239Y0094210D01*
X0238967Y0094311D01*
X0238698Y0094419D01*
X0238432Y0094533D01*
X0238168Y0094654D01*
X0237908Y0094781D01*
X0237650Y0094915D01*
X0237396Y0095054D01*
X0237146Y0095200D01*
X0236899Y0095352D01*
X0236656Y0095511D01*
X0236417Y0095675D01*
X0236182Y0095844D01*
X0235951Y0096020D01*
X0235725Y0096201D01*
X0235503Y0096388D01*
X0235286Y0096580D01*
X0235074Y0096777D01*
X0234866Y0096979D01*
X0234664Y0097187D01*
X0234467Y0097399D01*
X0234275Y0097616D01*
X0234088Y0097838D01*
X0233907Y0098064D01*
X0233731Y0098295D01*
X0233562Y0098530D01*
X0233398Y0098769D01*
X0233239Y0099012D01*
X0233087Y0099259D01*
X0232941Y0099509D01*
X0232802Y0099763D01*
X0232668Y0100021D01*
X0232541Y0100281D01*
X0232420Y0100545D01*
X0232306Y0100811D01*
X0232198Y0101080D01*
X0232097Y0101352D01*
X0232003Y0101626D01*
X0231916Y0101902D01*
X0231835Y0102181D01*
X0231761Y0102461D01*
X0231694Y0102743D01*
X0231634Y0103027D01*
X0231581Y0103312D01*
X0231535Y0103598D01*
X0231496Y0103885D01*
X0231464Y0104173D01*
X0231439Y0104462D01*
X0231421Y0104751D01*
X0231411Y0105041D01*
X0231407Y0105331D01*
X0231407Y0014780D02*
X0231411Y0015070D01*
X0231421Y0015360D01*
X0231439Y0015649D01*
X0231464Y0015938D01*
X0231496Y0016226D01*
X0231535Y0016513D01*
X0231581Y0016799D01*
X0231634Y0017084D01*
X0231694Y0017368D01*
X0231761Y0017650D01*
X0231835Y0017930D01*
X0231916Y0018209D01*
X0232003Y0018485D01*
X0232097Y0018759D01*
X0232198Y0019031D01*
X0232306Y0019300D01*
X0232420Y0019566D01*
X0232541Y0019830D01*
X0232668Y0020090D01*
X0232802Y0020348D01*
X0232941Y0020602D01*
X0233087Y0020852D01*
X0233239Y0021099D01*
X0233398Y0021342D01*
X0233562Y0021581D01*
X0233731Y0021816D01*
X0233907Y0022047D01*
X0234088Y0022273D01*
X0234275Y0022495D01*
X0234467Y0022712D01*
X0234664Y0022924D01*
X0234866Y0023132D01*
X0235074Y0023334D01*
X0235286Y0023531D01*
X0235503Y0023723D01*
X0235725Y0023910D01*
X0235951Y0024091D01*
X0236182Y0024267D01*
X0236417Y0024436D01*
X0236656Y0024600D01*
X0236899Y0024759D01*
X0237146Y0024911D01*
X0237396Y0025057D01*
X0237650Y0025196D01*
X0237908Y0025330D01*
X0238168Y0025457D01*
X0238432Y0025578D01*
X0238698Y0025692D01*
X0238967Y0025800D01*
X0239239Y0025901D01*
X0239513Y0025995D01*
X0239789Y0026082D01*
X0240068Y0026163D01*
X0240348Y0026237D01*
X0240630Y0026304D01*
X0240914Y0026364D01*
X0241199Y0026417D01*
X0241485Y0026463D01*
X0241772Y0026502D01*
X0242060Y0026534D01*
X0242349Y0026559D01*
X0242638Y0026577D01*
X0242928Y0026587D01*
X0243218Y0026591D01*
X0243508Y0026587D01*
X0243798Y0026577D01*
X0244087Y0026559D01*
X0244376Y0026534D01*
X0244664Y0026502D01*
X0244951Y0026463D01*
X0245237Y0026417D01*
X0245522Y0026364D01*
X0245806Y0026304D01*
X0246088Y0026237D01*
X0246368Y0026163D01*
X0246647Y0026082D01*
X0246923Y0025995D01*
X0247197Y0025901D01*
X0247469Y0025800D01*
X0247738Y0025692D01*
X0248004Y0025578D01*
X0248268Y0025457D01*
X0248528Y0025330D01*
X0248786Y0025196D01*
X0249040Y0025057D01*
X0249290Y0024911D01*
X0249537Y0024759D01*
X0249780Y0024600D01*
X0250019Y0024436D01*
X0250254Y0024267D01*
X0250485Y0024091D01*
X0250711Y0023910D01*
X0250933Y0023723D01*
X0251150Y0023531D01*
X0251362Y0023334D01*
X0251570Y0023132D01*
X0251772Y0022924D01*
X0251969Y0022712D01*
X0252161Y0022495D01*
X0252348Y0022273D01*
X0252529Y0022047D01*
X0252705Y0021816D01*
X0252874Y0021581D01*
X0253038Y0021342D01*
X0253197Y0021099D01*
X0253349Y0020852D01*
X0253495Y0020602D01*
X0253634Y0020348D01*
X0253768Y0020090D01*
X0253895Y0019830D01*
X0254016Y0019566D01*
X0254130Y0019300D01*
X0254238Y0019031D01*
X0254339Y0018759D01*
X0254433Y0018485D01*
X0254520Y0018209D01*
X0254601Y0017930D01*
X0254675Y0017650D01*
X0254742Y0017368D01*
X0254802Y0017084D01*
X0254855Y0016799D01*
X0254901Y0016513D01*
X0254940Y0016226D01*
X0254972Y0015938D01*
X0254997Y0015649D01*
X0255015Y0015360D01*
X0255025Y0015070D01*
X0255029Y0014780D01*
X0255025Y0014490D01*
X0255015Y0014200D01*
X0254997Y0013911D01*
X0254972Y0013622D01*
X0254940Y0013334D01*
X0254901Y0013047D01*
X0254855Y0012761D01*
X0254802Y0012476D01*
X0254742Y0012192D01*
X0254675Y0011910D01*
X0254601Y0011630D01*
X0254520Y0011351D01*
X0254433Y0011075D01*
X0254339Y0010801D01*
X0254238Y0010529D01*
X0254130Y0010260D01*
X0254016Y0009994D01*
X0253895Y0009730D01*
X0253768Y0009470D01*
X0253634Y0009212D01*
X0253495Y0008958D01*
X0253349Y0008708D01*
X0253197Y0008461D01*
X0253038Y0008218D01*
X0252874Y0007979D01*
X0252705Y0007744D01*
X0252529Y0007513D01*
X0252348Y0007287D01*
X0252161Y0007065D01*
X0251969Y0006848D01*
X0251772Y0006636D01*
X0251570Y0006428D01*
X0251362Y0006226D01*
X0251150Y0006029D01*
X0250933Y0005837D01*
X0250711Y0005650D01*
X0250485Y0005469D01*
X0250254Y0005293D01*
X0250019Y0005124D01*
X0249780Y0004960D01*
X0249537Y0004801D01*
X0249290Y0004649D01*
X0249040Y0004503D01*
X0248786Y0004364D01*
X0248528Y0004230D01*
X0248268Y0004103D01*
X0248004Y0003982D01*
X0247738Y0003868D01*
X0247469Y0003760D01*
X0247197Y0003659D01*
X0246923Y0003565D01*
X0246647Y0003478D01*
X0246368Y0003397D01*
X0246088Y0003323D01*
X0245806Y0003256D01*
X0245522Y0003196D01*
X0245237Y0003143D01*
X0244951Y0003097D01*
X0244664Y0003058D01*
X0244376Y0003026D01*
X0244087Y0003001D01*
X0243798Y0002983D01*
X0243508Y0002973D01*
X0243218Y0002969D01*
X0242928Y0002973D01*
X0242638Y0002983D01*
X0242349Y0003001D01*
X0242060Y0003026D01*
X0241772Y0003058D01*
X0241485Y0003097D01*
X0241199Y0003143D01*
X0240914Y0003196D01*
X0240630Y0003256D01*
X0240348Y0003323D01*
X0240068Y0003397D01*
X0239789Y0003478D01*
X0239513Y0003565D01*
X0239239Y0003659D01*
X0238967Y0003760D01*
X0238698Y0003868D01*
X0238432Y0003982D01*
X0238168Y0004103D01*
X0237908Y0004230D01*
X0237650Y0004364D01*
X0237396Y0004503D01*
X0237146Y0004649D01*
X0236899Y0004801D01*
X0236656Y0004960D01*
X0236417Y0005124D01*
X0236182Y0005293D01*
X0235951Y0005469D01*
X0235725Y0005650D01*
X0235503Y0005837D01*
X0235286Y0006029D01*
X0235074Y0006226D01*
X0234866Y0006428D01*
X0234664Y0006636D01*
X0234467Y0006848D01*
X0234275Y0007065D01*
X0234088Y0007287D01*
X0233907Y0007513D01*
X0233731Y0007744D01*
X0233562Y0007979D01*
X0233398Y0008218D01*
X0233239Y0008461D01*
X0233087Y0008708D01*
X0232941Y0008958D01*
X0232802Y0009212D01*
X0232668Y0009470D01*
X0232541Y0009730D01*
X0232420Y0009994D01*
X0232306Y0010260D01*
X0232198Y0010529D01*
X0232097Y0010801D01*
X0232003Y0011075D01*
X0231916Y0011351D01*
X0231835Y0011630D01*
X0231761Y0011910D01*
X0231694Y0012192D01*
X0231634Y0012476D01*
X0231581Y0012761D01*
X0231535Y0013047D01*
X0231496Y0013334D01*
X0231464Y0013622D01*
X0231439Y0013911D01*
X0231421Y0014200D01*
X0231411Y0014490D01*
X0231407Y0014780D01*
D11*
X0200924Y0028734D02*
X0196654Y0028734D01*
X0198789Y0028734D02*
X0198789Y0035140D01*
X0196654Y0033004D01*
X0194499Y0029802D02*
X0194499Y0028734D01*
X0193431Y0028734D01*
X0193431Y0029802D01*
X0194499Y0029802D01*
X0191256Y0028734D02*
X0186986Y0028734D01*
X0189121Y0028734D02*
X0189121Y0035140D01*
X0186986Y0033004D01*
X0178365Y0033004D02*
X0176230Y0028734D01*
X0174095Y0033004D01*
X0171920Y0031937D02*
X0171920Y0030869D01*
X0167649Y0030869D01*
X0167649Y0029802D02*
X0167649Y0031937D01*
X0168717Y0033004D01*
X0170852Y0033004D01*
X0171920Y0031937D01*
X0170852Y0028734D02*
X0168717Y0028734D01*
X0167649Y0029802D01*
X0165474Y0028734D02*
X0163339Y0030869D01*
X0164406Y0030869D02*
X0161204Y0030869D01*
X0161204Y0028734D02*
X0161204Y0035140D01*
X0164406Y0035140D01*
X0165474Y0034072D01*
X0165474Y0031937D01*
X0164406Y0030869D01*
X0141781Y0029679D02*
X0141781Y0028611D01*
X0140713Y0028611D01*
X0140713Y0029679D01*
X0141781Y0029679D01*
X0138538Y0028611D02*
X0135335Y0028611D01*
X0134268Y0029679D01*
X0134268Y0031814D01*
X0135335Y0032881D01*
X0138538Y0032881D01*
X0138538Y0035016D02*
X0138538Y0028611D01*
X0132092Y0029679D02*
X0131025Y0028611D01*
X0127822Y0028611D01*
X0127822Y0035016D01*
X0131025Y0035016D01*
X0132092Y0033949D01*
X0132092Y0032881D01*
X0131025Y0031814D01*
X0127822Y0031814D01*
X0131025Y0031814D02*
X0132092Y0030746D01*
X0132092Y0029679D01*
X0119201Y0029679D02*
X0118134Y0028611D01*
X0115999Y0028611D01*
X0114931Y0029679D01*
X0114931Y0031814D02*
X0117066Y0032881D01*
X0118134Y0032881D01*
X0119201Y0031814D01*
X0119201Y0029679D01*
X0114931Y0031814D02*
X0114931Y0035016D01*
X0119201Y0035016D01*
X0112756Y0035016D02*
X0112756Y0033949D01*
X0108486Y0029679D01*
X0108486Y0028611D01*
X0106310Y0029679D02*
X0106310Y0031814D01*
X0105243Y0032881D01*
X0102040Y0032881D01*
X0102040Y0035016D02*
X0102040Y0028611D01*
X0105243Y0028611D01*
X0106310Y0029679D01*
X0099865Y0028611D02*
X0099865Y0032881D01*
X0099865Y0028611D02*
X0096662Y0028611D01*
X0095595Y0029679D01*
X0095595Y0032881D01*
X0093419Y0031814D02*
X0089149Y0031814D01*
X0089149Y0035016D02*
X0089149Y0028611D01*
X0093419Y0028611D02*
X0093419Y0035016D01*
X0079474Y0035016D02*
X0079474Y0036084D01*
X0079474Y0032881D02*
X0079474Y0028611D01*
X0078407Y0028611D02*
X0080542Y0028611D01*
X0076231Y0031814D02*
X0075164Y0030746D01*
X0071961Y0030746D01*
X0071961Y0028611D02*
X0071961Y0035016D01*
X0075164Y0035016D01*
X0076231Y0033949D01*
X0076231Y0031814D01*
X0078407Y0032881D02*
X0079474Y0032881D01*
X0063341Y0032881D02*
X0063341Y0027543D01*
X0062273Y0026476D01*
X0061205Y0026476D01*
X0060138Y0028611D02*
X0059070Y0029679D01*
X0059070Y0032881D01*
X0056902Y0032881D02*
X0055834Y0032881D01*
X0053699Y0030746D01*
X0053699Y0028611D02*
X0053699Y0032881D01*
X0051530Y0032881D02*
X0050463Y0032881D01*
X0048328Y0030746D01*
X0048328Y0028611D02*
X0048328Y0032881D01*
X0046153Y0031814D02*
X0046153Y0030746D01*
X0041882Y0030746D01*
X0041882Y0029679D02*
X0041882Y0031814D01*
X0042950Y0032881D01*
X0045085Y0032881D01*
X0046153Y0031814D01*
X0045085Y0028611D02*
X0042950Y0028611D01*
X0041882Y0029679D01*
X0039707Y0029679D02*
X0039707Y0031814D01*
X0038639Y0032881D01*
X0035437Y0032881D01*
X0035437Y0035016D02*
X0035437Y0028611D01*
X0038639Y0028611D01*
X0039707Y0029679D01*
X0033262Y0029679D02*
X0032194Y0028611D01*
X0028991Y0028611D01*
X0026816Y0029679D02*
X0025748Y0030746D01*
X0023613Y0030746D01*
X0022546Y0031814D01*
X0023613Y0032881D01*
X0026816Y0032881D01*
X0028991Y0032881D02*
X0032194Y0032881D01*
X0033262Y0031814D01*
X0033262Y0029679D01*
X0028991Y0026476D02*
X0028991Y0032881D01*
X0026816Y0029679D02*
X0025748Y0028611D01*
X0022546Y0028611D01*
X0020371Y0028611D02*
X0020371Y0031814D01*
X0019303Y0032881D01*
X0017168Y0032881D01*
X0017168Y0030746D02*
X0020371Y0030746D01*
X0020371Y0028611D02*
X0017168Y0028611D01*
X0016100Y0029679D01*
X0017168Y0030746D01*
X0013925Y0031814D02*
X0013925Y0033949D01*
X0012857Y0035016D01*
X0009655Y0035016D01*
X0009655Y0028611D01*
X0009655Y0030746D02*
X0012857Y0030746D01*
X0013925Y0031814D01*
X0011790Y0030746D02*
X0013925Y0028611D01*
X0006861Y0036910D02*
X0006861Y0041181D01*
X0004726Y0039045D02*
X0008996Y0039045D01*
X0039803Y0076627D02*
X0039803Y0080898D01*
X0037668Y0078763D02*
X0041938Y0078763D01*
X0076092Y0075224D02*
X0076092Y0067024D01*
X0076092Y0057024D01*
X0076092Y0048824D01*
X0076094Y0048748D01*
X0076100Y0048672D01*
X0076109Y0048597D01*
X0076123Y0048522D01*
X0076140Y0048448D01*
X0076161Y0048375D01*
X0076185Y0048303D01*
X0076214Y0048232D01*
X0076245Y0048163D01*
X0076280Y0048096D01*
X0076319Y0048031D01*
X0076361Y0047967D01*
X0076406Y0047906D01*
X0076454Y0047847D01*
X0076505Y0047791D01*
X0076559Y0047737D01*
X0076615Y0047686D01*
X0076674Y0047638D01*
X0076735Y0047593D01*
X0076799Y0047551D01*
X0076864Y0047512D01*
X0076931Y0047477D01*
X0077000Y0047446D01*
X0077071Y0047417D01*
X0077143Y0047393D01*
X0077216Y0047372D01*
X0077290Y0047355D01*
X0077365Y0047341D01*
X0077440Y0047332D01*
X0077516Y0047326D01*
X0077592Y0047324D01*
X0125792Y0047324D01*
X0125868Y0047326D01*
X0125944Y0047332D01*
X0126019Y0047341D01*
X0126094Y0047355D01*
X0126168Y0047372D01*
X0126241Y0047393D01*
X0126313Y0047417D01*
X0126384Y0047446D01*
X0126453Y0047477D01*
X0126520Y0047512D01*
X0126585Y0047551D01*
X0126649Y0047593D01*
X0126710Y0047638D01*
X0126769Y0047686D01*
X0126825Y0047737D01*
X0126879Y0047791D01*
X0126930Y0047847D01*
X0126978Y0047906D01*
X0127023Y0047967D01*
X0127065Y0048031D01*
X0127104Y0048096D01*
X0127139Y0048163D01*
X0127170Y0048232D01*
X0127199Y0048303D01*
X0127223Y0048375D01*
X0127244Y0048448D01*
X0127261Y0048522D01*
X0127275Y0048597D01*
X0127284Y0048672D01*
X0127290Y0048748D01*
X0127292Y0048824D01*
X0127292Y0075224D01*
X0127290Y0075300D01*
X0127284Y0075376D01*
X0127275Y0075451D01*
X0127261Y0075526D01*
X0127244Y0075600D01*
X0127223Y0075673D01*
X0127199Y0075745D01*
X0127170Y0075816D01*
X0127139Y0075885D01*
X0127104Y0075952D01*
X0127065Y0076017D01*
X0127023Y0076081D01*
X0126978Y0076142D01*
X0126930Y0076201D01*
X0126879Y0076257D01*
X0126825Y0076311D01*
X0126769Y0076362D01*
X0126710Y0076410D01*
X0126649Y0076455D01*
X0126585Y0076497D01*
X0126520Y0076536D01*
X0126453Y0076571D01*
X0126384Y0076602D01*
X0126313Y0076631D01*
X0126241Y0076655D01*
X0126168Y0076676D01*
X0126094Y0076693D01*
X0126019Y0076707D01*
X0125944Y0076716D01*
X0125868Y0076722D01*
X0125792Y0076724D01*
X0077592Y0076724D01*
X0077516Y0076722D01*
X0077440Y0076716D01*
X0077365Y0076707D01*
X0077290Y0076693D01*
X0077216Y0076676D01*
X0077143Y0076655D01*
X0077071Y0076631D01*
X0077000Y0076602D01*
X0076931Y0076571D01*
X0076864Y0076536D01*
X0076799Y0076497D01*
X0076735Y0076455D01*
X0076674Y0076410D01*
X0076615Y0076362D01*
X0076559Y0076311D01*
X0076505Y0076257D01*
X0076454Y0076201D01*
X0076406Y0076142D01*
X0076361Y0076081D01*
X0076319Y0076017D01*
X0076280Y0075952D01*
X0076245Y0075885D01*
X0076214Y0075816D01*
X0076185Y0075745D01*
X0076161Y0075673D01*
X0076140Y0075600D01*
X0076123Y0075526D01*
X0076109Y0075451D01*
X0076100Y0075376D01*
X0076094Y0075300D01*
X0076092Y0075224D01*
X0076092Y0067024D02*
X0076232Y0067022D01*
X0076372Y0067016D01*
X0076512Y0067006D01*
X0076652Y0066993D01*
X0076791Y0066975D01*
X0076930Y0066953D01*
X0077067Y0066928D01*
X0077205Y0066899D01*
X0077341Y0066866D01*
X0077476Y0066829D01*
X0077610Y0066788D01*
X0077743Y0066743D01*
X0077875Y0066695D01*
X0078005Y0066643D01*
X0078134Y0066588D01*
X0078261Y0066529D01*
X0078387Y0066466D01*
X0078511Y0066400D01*
X0078632Y0066331D01*
X0078752Y0066258D01*
X0078870Y0066181D01*
X0078985Y0066102D01*
X0079099Y0066019D01*
X0079209Y0065933D01*
X0079318Y0065844D01*
X0079424Y0065752D01*
X0079527Y0065657D01*
X0079628Y0065560D01*
X0079725Y0065459D01*
X0079820Y0065356D01*
X0079912Y0065250D01*
X0080001Y0065141D01*
X0080087Y0065031D01*
X0080170Y0064917D01*
X0080249Y0064802D01*
X0080326Y0064684D01*
X0080399Y0064564D01*
X0080468Y0064443D01*
X0080534Y0064319D01*
X0080597Y0064193D01*
X0080656Y0064066D01*
X0080711Y0063937D01*
X0080763Y0063807D01*
X0080811Y0063675D01*
X0080856Y0063542D01*
X0080897Y0063408D01*
X0080934Y0063273D01*
X0080967Y0063137D01*
X0080996Y0062999D01*
X0081021Y0062862D01*
X0081043Y0062723D01*
X0081061Y0062584D01*
X0081074Y0062444D01*
X0081084Y0062304D01*
X0081090Y0062164D01*
X0081092Y0062024D01*
X0081090Y0061884D01*
X0081084Y0061744D01*
X0081074Y0061604D01*
X0081061Y0061464D01*
X0081043Y0061325D01*
X0081021Y0061186D01*
X0080996Y0061049D01*
X0080967Y0060911D01*
X0080934Y0060775D01*
X0080897Y0060640D01*
X0080856Y0060506D01*
X0080811Y0060373D01*
X0080763Y0060241D01*
X0080711Y0060111D01*
X0080656Y0059982D01*
X0080597Y0059855D01*
X0080534Y0059729D01*
X0080468Y0059605D01*
X0080399Y0059484D01*
X0080326Y0059364D01*
X0080249Y0059246D01*
X0080170Y0059131D01*
X0080087Y0059017D01*
X0080001Y0058907D01*
X0079912Y0058798D01*
X0079820Y0058692D01*
X0079725Y0058589D01*
X0079628Y0058488D01*
X0079527Y0058391D01*
X0079424Y0058296D01*
X0079318Y0058204D01*
X0079209Y0058115D01*
X0079099Y0058029D01*
X0078985Y0057946D01*
X0078870Y0057867D01*
X0078752Y0057790D01*
X0078632Y0057717D01*
X0078511Y0057648D01*
X0078387Y0057582D01*
X0078261Y0057519D01*
X0078134Y0057460D01*
X0078005Y0057405D01*
X0077875Y0057353D01*
X0077743Y0057305D01*
X0077610Y0057260D01*
X0077476Y0057219D01*
X0077341Y0057182D01*
X0077205Y0057149D01*
X0077067Y0057120D01*
X0076930Y0057095D01*
X0076791Y0057073D01*
X0076652Y0057055D01*
X0076512Y0057042D01*
X0076372Y0057032D01*
X0076232Y0057026D01*
X0076092Y0057024D01*
X0108486Y0035016D02*
X0112756Y0035016D01*
X0136515Y0056698D02*
X0136515Y0064504D01*
X0136515Y0074504D01*
X0136515Y0083098D01*
X0136517Y0083174D01*
X0136523Y0083250D01*
X0136532Y0083325D01*
X0136546Y0083400D01*
X0136563Y0083474D01*
X0136584Y0083547D01*
X0136608Y0083619D01*
X0136637Y0083690D01*
X0136668Y0083759D01*
X0136703Y0083826D01*
X0136742Y0083891D01*
X0136784Y0083955D01*
X0136829Y0084016D01*
X0136877Y0084075D01*
X0136928Y0084131D01*
X0136982Y0084185D01*
X0137038Y0084236D01*
X0137097Y0084284D01*
X0137158Y0084329D01*
X0137222Y0084371D01*
X0137287Y0084410D01*
X0137354Y0084445D01*
X0137423Y0084476D01*
X0137494Y0084505D01*
X0137566Y0084529D01*
X0137639Y0084550D01*
X0137713Y0084567D01*
X0137788Y0084581D01*
X0137863Y0084590D01*
X0137939Y0084596D01*
X0138015Y0084598D01*
X0186215Y0084598D01*
X0186291Y0084596D01*
X0186367Y0084590D01*
X0186442Y0084581D01*
X0186517Y0084567D01*
X0186591Y0084550D01*
X0186664Y0084529D01*
X0186736Y0084505D01*
X0186807Y0084476D01*
X0186876Y0084445D01*
X0186943Y0084410D01*
X0187008Y0084371D01*
X0187072Y0084329D01*
X0187133Y0084284D01*
X0187192Y0084236D01*
X0187248Y0084185D01*
X0187302Y0084131D01*
X0187353Y0084075D01*
X0187401Y0084016D01*
X0187446Y0083955D01*
X0187488Y0083891D01*
X0187527Y0083826D01*
X0187562Y0083759D01*
X0187593Y0083690D01*
X0187622Y0083619D01*
X0187646Y0083547D01*
X0187667Y0083474D01*
X0187684Y0083400D01*
X0187698Y0083325D01*
X0187707Y0083250D01*
X0187713Y0083174D01*
X0187715Y0083098D01*
X0187715Y0056698D01*
X0187713Y0056622D01*
X0187707Y0056546D01*
X0187698Y0056471D01*
X0187684Y0056396D01*
X0187667Y0056322D01*
X0187646Y0056249D01*
X0187622Y0056177D01*
X0187593Y0056106D01*
X0187562Y0056037D01*
X0187527Y0055970D01*
X0187488Y0055905D01*
X0187446Y0055841D01*
X0187401Y0055780D01*
X0187353Y0055721D01*
X0187302Y0055665D01*
X0187248Y0055611D01*
X0187192Y0055560D01*
X0187133Y0055512D01*
X0187072Y0055467D01*
X0187008Y0055425D01*
X0186943Y0055386D01*
X0186876Y0055351D01*
X0186807Y0055320D01*
X0186736Y0055291D01*
X0186664Y0055267D01*
X0186591Y0055246D01*
X0186517Y0055229D01*
X0186442Y0055215D01*
X0186367Y0055206D01*
X0186291Y0055200D01*
X0186215Y0055198D01*
X0138015Y0055198D01*
X0137939Y0055200D01*
X0137863Y0055206D01*
X0137788Y0055215D01*
X0137713Y0055229D01*
X0137639Y0055246D01*
X0137566Y0055267D01*
X0137494Y0055291D01*
X0137423Y0055320D01*
X0137354Y0055351D01*
X0137287Y0055386D01*
X0137222Y0055425D01*
X0137158Y0055467D01*
X0137097Y0055512D01*
X0137038Y0055560D01*
X0136982Y0055611D01*
X0136928Y0055665D01*
X0136877Y0055721D01*
X0136829Y0055780D01*
X0136784Y0055841D01*
X0136742Y0055905D01*
X0136703Y0055970D01*
X0136668Y0056037D01*
X0136637Y0056106D01*
X0136608Y0056177D01*
X0136584Y0056249D01*
X0136563Y0056322D01*
X0136546Y0056396D01*
X0136532Y0056471D01*
X0136523Y0056546D01*
X0136517Y0056622D01*
X0136515Y0056698D01*
X0205917Y0069832D02*
X0209120Y0069832D01*
X0208052Y0071967D01*
X0208052Y0073035D01*
X0209120Y0074102D01*
X0211255Y0074102D01*
X0212322Y0073035D01*
X0212322Y0070900D01*
X0211255Y0069832D01*
X0209120Y0067657D02*
X0209120Y0063387D01*
X0211255Y0065522D02*
X0206984Y0065522D01*
X0205917Y0069832D02*
X0205917Y0074102D01*
X0205917Y0076278D02*
X0210187Y0076278D01*
X0212322Y0078413D01*
X0210187Y0080548D01*
X0205917Y0080548D01*
X0207181Y0058210D02*
X0206114Y0057143D01*
X0206114Y0053940D01*
X0212519Y0053940D01*
X0212519Y0057143D01*
X0211452Y0058210D01*
X0207181Y0058210D01*
X0206114Y0051765D02*
X0212519Y0051765D01*
X0206114Y0047495D01*
X0212519Y0047495D01*
X0211452Y0045319D02*
X0209316Y0045319D01*
X0209316Y0043184D01*
X0207181Y0041049D02*
X0211452Y0041049D01*
X0212519Y0042117D01*
X0212519Y0044252D01*
X0211452Y0045319D01*
X0207181Y0045319D02*
X0206114Y0044252D01*
X0206114Y0042117D01*
X0207181Y0041049D01*
X0063341Y0028611D02*
X0060138Y0028611D01*
D12*
X0056610Y0040491D02*
X0053541Y0040491D01*
X0052006Y0042026D01*
X0053541Y0043561D01*
X0056610Y0043561D01*
X0055843Y0045095D02*
X0056610Y0045863D01*
X0056610Y0047397D01*
X0055843Y0048165D01*
X0055076Y0048165D01*
X0054308Y0047397D01*
X0054308Y0045863D01*
X0053541Y0045095D01*
X0052774Y0045095D01*
X0052006Y0045863D01*
X0052006Y0047397D01*
X0052774Y0048165D01*
X0053541Y0049699D02*
X0052006Y0051234D01*
X0056610Y0051234D01*
X0056610Y0052768D02*
X0056610Y0049699D01*
X0056610Y0054303D02*
X0056610Y0057372D01*
X0056610Y0055838D02*
X0052006Y0055838D01*
X0053541Y0054303D01*
X0053541Y0058907D02*
X0052006Y0060442D01*
X0056610Y0060442D01*
X0056610Y0061976D02*
X0056610Y0058907D01*
X0056610Y0063511D02*
X0055843Y0063511D01*
X0052774Y0066580D01*
X0052006Y0066580D01*
X0052006Y0063511D01*
X0054308Y0068115D02*
X0054308Y0071184D01*
X0052774Y0072719D02*
X0052006Y0073486D01*
X0052006Y0075021D01*
X0052774Y0075788D01*
X0053541Y0075788D01*
X0054308Y0075021D01*
X0055076Y0075788D01*
X0055843Y0075788D01*
X0056610Y0075021D01*
X0056610Y0073486D01*
X0055843Y0072719D01*
X0054308Y0074253D02*
X0054308Y0075021D01*
X0055843Y0077323D02*
X0055843Y0078090D01*
X0056610Y0078090D01*
X0056610Y0077323D01*
X0055843Y0077323D01*
X0055843Y0079625D02*
X0056610Y0080392D01*
X0056610Y0081927D01*
X0055843Y0082694D01*
X0055076Y0082694D01*
X0054308Y0081927D01*
X0054308Y0081159D01*
X0054308Y0081927D02*
X0053541Y0082694D01*
X0052774Y0082694D01*
X0052006Y0081927D01*
X0052006Y0080392D01*
X0052774Y0079625D01*
X0034664Y0079318D02*
X0033896Y0078550D01*
X0033896Y0074714D01*
X0031594Y0074714D02*
X0031594Y0077783D01*
X0033129Y0077016D02*
X0034664Y0077016D01*
X0031594Y0074714D02*
X0029292Y0074714D01*
X0028525Y0075481D01*
X0028525Y0077783D01*
X0026990Y0078550D02*
X0023921Y0075481D01*
X0024688Y0074714D01*
X0026223Y0074714D01*
X0026990Y0075481D01*
X0026990Y0078550D01*
X0026223Y0079318D01*
X0024688Y0079318D01*
X0023921Y0078550D01*
X0023921Y0075481D01*
X0022387Y0074714D02*
X0019317Y0074714D01*
X0020852Y0074714D02*
X0020852Y0079318D01*
X0019317Y0077783D01*
X0019301Y0069505D02*
X0021603Y0069505D01*
X0022371Y0068737D01*
X0022371Y0067203D01*
X0021603Y0066435D01*
X0019301Y0066435D01*
X0019301Y0064901D02*
X0019301Y0069505D01*
X0017767Y0069505D02*
X0017767Y0066435D01*
X0016232Y0064901D01*
X0014697Y0066435D01*
X0014697Y0069505D01*
X0020836Y0066435D02*
X0022371Y0064901D01*
X0023905Y0064901D02*
X0026974Y0064901D01*
X0025440Y0064901D02*
X0025440Y0069505D01*
X0023905Y0067970D01*
X0007467Y0058614D02*
X0003630Y0058614D01*
X0002863Y0059381D01*
X0005165Y0059381D02*
X0005165Y0057846D01*
X0004397Y0056312D02*
X0007467Y0056312D01*
X0007467Y0054010D01*
X0006699Y0053242D01*
X0004397Y0053242D01*
X0003630Y0051708D02*
X0006699Y0048639D01*
X0007467Y0049406D01*
X0007467Y0050941D01*
X0006699Y0051708D01*
X0003630Y0051708D01*
X0002863Y0050941D01*
X0002863Y0049406D01*
X0003630Y0048639D01*
X0006699Y0048639D01*
X0007467Y0047104D02*
X0007467Y0044035D01*
X0007467Y0045569D02*
X0002863Y0045569D01*
X0004397Y0044035D01*
X0010371Y0038659D02*
X0010371Y0035589D01*
X0011139Y0034822D01*
X0012673Y0034822D01*
X0013441Y0035589D01*
X0014975Y0034822D02*
X0018045Y0037891D01*
X0018045Y0038659D01*
X0017277Y0039426D01*
X0015743Y0039426D01*
X0014975Y0038659D01*
X0013441Y0038659D02*
X0012673Y0039426D01*
X0011139Y0039426D01*
X0010371Y0038659D01*
X0014975Y0034822D02*
X0018045Y0034822D01*
X0054308Y0040491D02*
X0054308Y0043561D01*
X0033906Y0090398D02*
X0030837Y0090398D01*
X0032371Y0090398D02*
X0032371Y0095002D01*
X0030837Y0093467D01*
X0029302Y0094234D02*
X0028535Y0095002D01*
X0027000Y0095002D01*
X0026233Y0094234D01*
X0026233Y0091165D01*
X0027000Y0090398D01*
X0028535Y0090398D01*
X0029302Y0091165D01*
X0121722Y0161401D02*
X0122489Y0160634D01*
X0124024Y0160634D01*
X0124791Y0161401D01*
X0124791Y0162936D01*
X0123257Y0162936D01*
X0124791Y0164471D02*
X0124024Y0165238D01*
X0122489Y0165238D01*
X0121722Y0164471D01*
X0121722Y0161401D01*
X0126326Y0160634D02*
X0126326Y0165238D01*
X0129395Y0160634D01*
X0129395Y0165238D01*
X0130930Y0165238D02*
X0133232Y0165238D01*
X0133999Y0164471D01*
X0133999Y0161401D01*
X0133232Y0160634D01*
X0130930Y0160634D01*
X0130930Y0165238D01*
X0132824Y0170993D02*
X0134359Y0172528D01*
X0134359Y0175597D01*
X0131289Y0175597D02*
X0131289Y0172528D01*
X0132824Y0170993D01*
X0129755Y0171761D02*
X0128987Y0170993D01*
X0127453Y0170993D01*
X0126685Y0171761D01*
X0125151Y0171761D02*
X0125151Y0170993D01*
X0124383Y0170993D01*
X0124383Y0171761D01*
X0125151Y0171761D01*
X0122849Y0171761D02*
X0122081Y0170993D01*
X0120547Y0170993D01*
X0119779Y0171761D01*
X0121314Y0173295D02*
X0122081Y0173295D01*
X0122849Y0172528D01*
X0122849Y0171761D01*
X0122081Y0173295D02*
X0122849Y0174063D01*
X0122849Y0174830D01*
X0122081Y0175597D01*
X0120547Y0175597D01*
X0119779Y0174830D01*
X0119814Y0180437D02*
X0121349Y0180437D01*
X0122116Y0181205D01*
X0122116Y0182739D01*
X0120581Y0182739D01*
X0119047Y0181205D02*
X0119814Y0180437D01*
X0119047Y0181205D02*
X0119047Y0184274D01*
X0119814Y0185041D01*
X0121349Y0185041D01*
X0122116Y0184274D01*
X0123651Y0185041D02*
X0125952Y0185041D01*
X0126720Y0184274D01*
X0126720Y0182739D01*
X0125952Y0181972D01*
X0123651Y0181972D01*
X0123651Y0180437D02*
X0123651Y0185041D01*
X0128254Y0185041D02*
X0129789Y0185041D01*
X0129022Y0185041D02*
X0129022Y0180437D01*
X0129789Y0180437D02*
X0128254Y0180437D01*
X0131324Y0181205D02*
X0132091Y0180437D01*
X0133626Y0180437D01*
X0134393Y0181205D01*
X0134393Y0184274D01*
X0133626Y0185041D01*
X0132091Y0185041D01*
X0131324Y0184274D01*
X0131324Y0181205D01*
X0128987Y0175597D02*
X0127453Y0175597D01*
X0126685Y0174830D01*
X0128220Y0173295D02*
X0128987Y0173295D01*
X0129755Y0172528D01*
X0129755Y0171761D01*
X0128987Y0173295D02*
X0129755Y0174063D01*
X0129755Y0174830D01*
X0128987Y0175597D01*
X0141077Y0190270D02*
X0140310Y0191037D01*
X0141077Y0190270D02*
X0142612Y0190270D01*
X0143379Y0191037D01*
X0143379Y0192572D01*
X0142612Y0193339D01*
X0141845Y0193339D01*
X0140310Y0192572D01*
X0140310Y0194874D01*
X0143379Y0194874D01*
X0150000Y0192572D02*
X0150000Y0191037D01*
X0150767Y0190270D01*
X0152302Y0190270D01*
X0153069Y0191037D01*
X0153069Y0191805D01*
X0152302Y0192572D01*
X0150000Y0192572D01*
X0151535Y0194106D01*
X0153069Y0194874D01*
X0157630Y0193339D02*
X0159165Y0194874D01*
X0159165Y0190270D01*
X0157630Y0190270D02*
X0160700Y0190270D01*
X0162234Y0190270D02*
X0165303Y0193339D01*
X0165303Y0194106D01*
X0164536Y0194874D01*
X0163001Y0194874D01*
X0162234Y0194106D01*
X0162234Y0190270D02*
X0165303Y0190270D01*
X0167630Y0190171D02*
X0170700Y0190171D01*
X0169165Y0190171D02*
X0169165Y0194775D01*
X0167630Y0193241D01*
X0172234Y0194008D02*
X0173001Y0194775D01*
X0174536Y0194775D01*
X0175303Y0194008D01*
X0175303Y0193241D01*
X0174536Y0192473D01*
X0175303Y0191706D01*
X0175303Y0190939D01*
X0174536Y0190171D01*
X0173001Y0190171D01*
X0172234Y0190939D01*
X0173769Y0192473D02*
X0174536Y0192473D01*
X0177714Y0193388D02*
X0179249Y0194923D01*
X0179249Y0190319D01*
X0180783Y0190319D02*
X0177714Y0190319D01*
X0182318Y0191086D02*
X0182318Y0192621D01*
X0184620Y0192621D01*
X0185387Y0191854D01*
X0185387Y0191086D01*
X0184620Y0190319D01*
X0183085Y0190319D01*
X0182318Y0191086D01*
X0182318Y0192621D02*
X0183852Y0194156D01*
X0185387Y0194923D01*
X0187763Y0193339D02*
X0189298Y0194874D01*
X0189298Y0190270D01*
X0190832Y0190270D02*
X0187763Y0190270D01*
X0192367Y0191037D02*
X0193134Y0190270D01*
X0194669Y0190270D01*
X0195436Y0191037D01*
X0195436Y0194106D01*
X0194669Y0194874D01*
X0193134Y0194874D01*
X0192367Y0194106D01*
X0192367Y0193339D01*
X0193134Y0192572D01*
X0195436Y0192572D01*
X0197827Y0194156D02*
X0198594Y0194923D01*
X0200129Y0194923D01*
X0200896Y0194156D01*
X0200896Y0193388D01*
X0197827Y0190319D01*
X0200896Y0190319D01*
X0202431Y0191086D02*
X0205500Y0194156D01*
X0205500Y0191086D01*
X0204733Y0190319D01*
X0203198Y0190319D01*
X0202431Y0191086D01*
X0202431Y0194156D01*
X0203198Y0194923D01*
X0204733Y0194923D01*
X0205500Y0194156D01*
X0207842Y0194156D02*
X0208609Y0194923D01*
X0210144Y0194923D01*
X0210911Y0194156D01*
X0210911Y0193388D01*
X0207842Y0190319D01*
X0210911Y0190319D01*
X0212446Y0190319D02*
X0215515Y0190319D01*
X0213980Y0190319D02*
X0213980Y0194923D01*
X0212446Y0193388D01*
X0217763Y0194156D02*
X0218530Y0194923D01*
X0220065Y0194923D01*
X0220832Y0194156D01*
X0220832Y0193388D01*
X0217763Y0190319D01*
X0220832Y0190319D01*
X0222367Y0191086D02*
X0222367Y0192621D01*
X0224669Y0192621D01*
X0225436Y0191854D01*
X0225436Y0191086D01*
X0224669Y0190319D01*
X0223134Y0190319D01*
X0222367Y0191086D01*
X0222367Y0192621D02*
X0223902Y0194156D01*
X0225436Y0194923D01*
X0244491Y0036306D02*
X0247560Y0036306D01*
X0249095Y0036306D02*
X0251397Y0036306D01*
X0252164Y0035539D01*
X0252164Y0034771D01*
X0251397Y0034004D01*
X0249095Y0034004D01*
X0251397Y0034004D02*
X0252164Y0033237D01*
X0252164Y0032469D01*
X0251397Y0031702D01*
X0249095Y0031702D01*
X0249095Y0036306D01*
X0246025Y0036306D02*
X0246025Y0031702D01*
X0253699Y0031702D02*
X0256768Y0031702D01*
X0255233Y0031702D02*
X0255233Y0036306D01*
X0253699Y0034771D01*
D13*
X0135475Y0147644D02*
X0135475Y0148261D01*
X0134858Y0148879D01*
X0133007Y0148879D01*
X0133007Y0147644D01*
X0133624Y0147027D01*
X0134858Y0147027D01*
X0135475Y0147644D01*
X0133007Y0148879D02*
X0134241Y0150113D01*
X0135475Y0150730D01*
X0130558Y0150730D02*
X0130558Y0147027D01*
X0131792Y0147027D02*
X0129323Y0147027D01*
X0129323Y0149496D02*
X0130558Y0150730D01*
X0114614Y0156916D02*
X0113997Y0156299D01*
X0112762Y0156299D01*
X0112145Y0156916D01*
X0110931Y0156299D02*
X0109697Y0157533D01*
X0108462Y0156299D01*
X0108462Y0160002D01*
X0107248Y0159385D02*
X0106631Y0160002D01*
X0105396Y0160002D01*
X0104779Y0159385D01*
X0104779Y0156916D01*
X0105396Y0156299D01*
X0106631Y0156299D01*
X0107248Y0156916D01*
X0107248Y0159385D01*
X0110931Y0160002D02*
X0110931Y0156299D01*
X0112762Y0158150D02*
X0113997Y0158150D01*
X0114614Y0157533D01*
X0114614Y0156916D01*
X0112762Y0158150D02*
X0112145Y0158767D01*
X0112145Y0159385D01*
X0112762Y0160002D01*
X0113997Y0160002D01*
X0114614Y0159385D01*
X0103565Y0159385D02*
X0103565Y0158150D01*
X0102947Y0157533D01*
X0101096Y0157533D01*
X0102330Y0157533D02*
X0103565Y0156299D01*
X0101096Y0156299D02*
X0101096Y0160002D01*
X0102947Y0160002D01*
X0103565Y0159385D01*
X0095444Y0151124D02*
X0094209Y0151124D01*
X0093592Y0150507D01*
X0092378Y0150507D02*
X0092378Y0149889D01*
X0091761Y0149272D01*
X0092378Y0148655D01*
X0092378Y0148038D01*
X0091761Y0147421D01*
X0090526Y0147421D01*
X0089909Y0148038D01*
X0091143Y0149272D02*
X0091761Y0149272D01*
X0092378Y0150507D02*
X0091761Y0151124D01*
X0090526Y0151124D01*
X0089909Y0150507D01*
X0093592Y0147421D02*
X0096061Y0149889D01*
X0096061Y0150507D01*
X0095444Y0151124D01*
X0096061Y0147421D02*
X0093592Y0147421D01*
X0058693Y0131982D02*
X0054990Y0129513D01*
X0055607Y0128299D02*
X0056841Y0128299D01*
X0057458Y0127682D01*
X0057458Y0125830D01*
X0057458Y0127065D02*
X0058693Y0128299D01*
X0058693Y0129513D02*
X0054990Y0131982D01*
X0055607Y0128299D02*
X0054990Y0127682D01*
X0054990Y0125830D01*
X0058693Y0125830D01*
X0049244Y0127256D02*
X0045541Y0127256D01*
X0045541Y0126022D02*
X0045541Y0128491D01*
X0045541Y0129705D02*
X0049244Y0132174D01*
X0049244Y0129705D02*
X0045541Y0132174D01*
X0038417Y0130407D02*
X0037800Y0131024D01*
X0035331Y0131024D01*
X0034714Y0130407D01*
X0034714Y0128556D01*
X0038417Y0128556D01*
X0038417Y0130407D01*
X0038417Y0127341D02*
X0034714Y0127341D01*
X0034714Y0124873D02*
X0038417Y0127341D01*
X0038417Y0124873D02*
X0034714Y0124873D01*
X0035331Y0123658D02*
X0034714Y0123041D01*
X0034714Y0121807D01*
X0035331Y0121189D01*
X0037800Y0121189D01*
X0038417Y0121807D01*
X0038417Y0123041D01*
X0037800Y0123658D01*
X0036566Y0123658D01*
X0036566Y0122424D01*
X0037402Y0191121D02*
X0035551Y0191121D01*
X0035551Y0194825D01*
X0037402Y0194825D01*
X0038020Y0194207D01*
X0038020Y0191739D01*
X0037402Y0191121D01*
X0038646Y0191739D02*
X0039263Y0191121D01*
X0040498Y0191121D01*
X0041115Y0191739D01*
X0041115Y0192356D01*
X0040498Y0192973D01*
X0039881Y0192973D01*
X0040498Y0192973D02*
X0041115Y0193590D01*
X0041115Y0194207D01*
X0040498Y0194825D01*
X0039263Y0194825D01*
X0038646Y0194207D01*
X0034336Y0194825D02*
X0034336Y0191121D01*
X0031868Y0194825D01*
X0031868Y0191121D01*
X0030653Y0191739D02*
X0030653Y0192973D01*
X0029419Y0192973D01*
X0030653Y0191739D02*
X0030036Y0191121D01*
X0028802Y0191121D01*
X0028185Y0191739D01*
X0028185Y0194207D01*
X0028802Y0194825D01*
X0030036Y0194825D01*
X0030653Y0194207D01*
X0042329Y0191739D02*
X0042329Y0191121D01*
X0042946Y0191121D01*
X0042946Y0191739D01*
X0042329Y0191739D01*
X0044171Y0191739D02*
X0044788Y0191121D01*
X0046022Y0191121D01*
X0046640Y0191739D01*
X0046640Y0192356D01*
X0046022Y0192973D01*
X0045405Y0192973D01*
X0046022Y0192973D02*
X0046640Y0193590D01*
X0046640Y0194207D01*
X0046022Y0194825D01*
X0044788Y0194825D01*
X0044171Y0194207D01*
X0047854Y0194825D02*
X0047854Y0192356D01*
X0049088Y0191121D01*
X0050323Y0192356D01*
X0050323Y0194825D01*
X0052136Y0194207D02*
X0052136Y0193590D01*
X0052754Y0192973D01*
X0053988Y0192973D01*
X0054605Y0192356D01*
X0054605Y0191739D01*
X0053988Y0191121D01*
X0052754Y0191121D01*
X0052136Y0191739D01*
X0052136Y0194207D02*
X0052754Y0194825D01*
X0053988Y0194825D01*
X0054605Y0194207D01*
X0055819Y0194825D02*
X0057671Y0194825D01*
X0058288Y0194207D01*
X0058288Y0191739D01*
X0057671Y0191121D01*
X0055819Y0191121D01*
X0055819Y0194825D01*
X0059503Y0193590D02*
X0060737Y0194825D01*
X0061971Y0193590D01*
X0061971Y0191121D01*
X0063189Y0191739D02*
X0063807Y0191121D01*
X0065041Y0191121D01*
X0065658Y0191739D01*
X0065658Y0192356D01*
X0065041Y0192973D01*
X0063807Y0192973D01*
X0063189Y0193590D01*
X0063189Y0194207D01*
X0063807Y0194825D01*
X0065041Y0194825D01*
X0065658Y0194207D01*
X0066873Y0194207D02*
X0066873Y0191739D01*
X0067490Y0191121D01*
X0068724Y0191121D01*
X0069341Y0191739D01*
X0070556Y0191121D02*
X0073025Y0191121D01*
X0070556Y0191121D02*
X0070556Y0194825D01*
X0069341Y0194207D02*
X0068724Y0194825D01*
X0067490Y0194825D01*
X0066873Y0194207D01*
X0061971Y0192973D02*
X0059503Y0192973D01*
X0059503Y0193590D02*
X0059503Y0191121D01*
D14*
X0073445Y0185245D02*
X0075346Y0185245D01*
X0075346Y0184611D02*
X0075346Y0185879D01*
X0074078Y0184611D02*
X0073445Y0185245D01*
X0073445Y0183669D02*
X0073445Y0183035D01*
X0073445Y0183352D02*
X0075029Y0183352D01*
X0075346Y0183035D01*
X0075346Y0182718D01*
X0075029Y0182401D01*
X0075346Y0175879D02*
X0075346Y0174611D01*
X0074078Y0175879D01*
X0073762Y0175879D01*
X0073445Y0175562D01*
X0073445Y0174928D01*
X0073762Y0174611D01*
X0073445Y0173669D02*
X0073445Y0173035D01*
X0073445Y0173352D02*
X0075029Y0173352D01*
X0075346Y0173035D01*
X0075346Y0172718D01*
X0075029Y0172401D01*
X0075029Y0166504D02*
X0075346Y0166187D01*
X0075346Y0165553D01*
X0075029Y0165236D01*
X0074395Y0165870D02*
X0074395Y0166187D01*
X0074712Y0166504D01*
X0075029Y0166504D01*
X0074395Y0166187D02*
X0074078Y0166504D01*
X0073762Y0166504D01*
X0073445Y0166187D01*
X0073445Y0165553D01*
X0073762Y0165236D01*
X0073445Y0164294D02*
X0073445Y0163660D01*
X0073445Y0163977D02*
X0075029Y0163977D01*
X0075346Y0163660D01*
X0075346Y0163343D01*
X0075029Y0163026D01*
X0067391Y0140237D02*
X0066440Y0139286D01*
X0067708Y0139286D01*
X0067391Y0138335D02*
X0067391Y0140237D01*
X0065498Y0140237D02*
X0064864Y0140237D01*
X0065181Y0140237D02*
X0065181Y0138652D01*
X0064864Y0138335D01*
X0064547Y0138335D01*
X0064230Y0138652D01*
X0079295Y0135677D02*
X0079612Y0135360D01*
X0079928Y0135360D01*
X0080245Y0135677D01*
X0080245Y0137262D01*
X0079928Y0137262D02*
X0080562Y0137262D01*
X0081504Y0136945D02*
X0081504Y0136628D01*
X0081821Y0136311D01*
X0082455Y0136311D01*
X0082772Y0135994D01*
X0082772Y0135677D01*
X0082455Y0135360D01*
X0081821Y0135360D01*
X0081504Y0135677D01*
X0081504Y0135994D01*
X0081821Y0136311D01*
X0082455Y0136311D02*
X0082772Y0136628D01*
X0082772Y0136945D01*
X0082455Y0137262D01*
X0081821Y0137262D01*
X0081504Y0136945D01*
X0111170Y0140802D02*
X0111487Y0140485D01*
X0111803Y0140485D01*
X0112120Y0140802D01*
X0112120Y0142387D01*
X0111803Y0142387D02*
X0112437Y0142387D01*
X0113379Y0141753D02*
X0114013Y0142387D01*
X0114013Y0140485D01*
X0113379Y0140485D02*
X0114647Y0140485D01*
X0115589Y0140485D02*
X0116857Y0140485D01*
X0116223Y0140485D02*
X0116223Y0142387D01*
X0115589Y0141753D01*
X0037977Y0088146D02*
X0037977Y0081059D01*
X0030890Y0081059D01*
X0030890Y0088146D01*
X0030496Y0088146D01*
X0030496Y0081453D01*
X0030103Y0081059D02*
X0030103Y0088146D01*
X0030496Y0088146D01*
X0030103Y0088146D02*
X0019079Y0088146D01*
X0019079Y0081059D01*
X0030103Y0081059D01*
X0030890Y0081059D01*
X0030890Y0088146D02*
X0037977Y0088146D01*
X0049123Y0061945D02*
X0023533Y0061945D01*
X0023533Y0046984D01*
X0049123Y0046984D01*
X0049123Y0061945D01*
X0069938Y0058199D02*
X0069938Y0056697D01*
X0070689Y0055947D01*
X0070689Y0054345D02*
X0069938Y0053595D01*
X0069938Y0052094D01*
X0070689Y0051343D01*
X0073692Y0051343D01*
X0074442Y0052094D01*
X0074442Y0053595D01*
X0073692Y0054345D01*
X0074442Y0055947D02*
X0071440Y0058949D01*
X0070689Y0058949D01*
X0069938Y0058199D01*
X0074442Y0058949D02*
X0074442Y0055947D01*
X0074442Y0049775D02*
X0074442Y0048274D01*
X0074442Y0049024D02*
X0069938Y0049024D01*
X0069938Y0048274D02*
X0069938Y0049775D01*
X0016249Y0049927D02*
X0009556Y0049927D01*
X0009163Y0049533D02*
X0016249Y0049533D01*
X0016249Y0049927D01*
X0016249Y0050321D01*
X0009163Y0050321D01*
X0009163Y0049533D01*
X0009163Y0042447D01*
X0016249Y0042447D01*
X0016249Y0049533D01*
X0016249Y0050321D02*
X0016249Y0061344D01*
X0009163Y0061344D01*
X0009163Y0050321D01*
X0012076Y0145515D02*
X0012393Y0145515D01*
X0012710Y0145832D01*
X0012710Y0147417D01*
X0012393Y0147417D02*
X0013027Y0147417D01*
X0013969Y0146783D02*
X0014603Y0147417D01*
X0014603Y0145515D01*
X0013969Y0145515D02*
X0015237Y0145515D01*
X0016179Y0145832D02*
X0017447Y0147100D01*
X0017447Y0145832D01*
X0017130Y0145515D01*
X0016496Y0145515D01*
X0016179Y0145832D01*
X0016179Y0147100D01*
X0016496Y0147417D01*
X0017130Y0147417D01*
X0017447Y0147100D01*
X0012076Y0145515D02*
X0011759Y0145832D01*
X0187312Y0075016D02*
X0187165Y0075014D01*
X0187019Y0075008D01*
X0186872Y0074998D01*
X0186726Y0074985D01*
X0186580Y0074967D01*
X0186435Y0074946D01*
X0186291Y0074921D01*
X0186147Y0074891D01*
X0186004Y0074859D01*
X0185862Y0074822D01*
X0185721Y0074781D01*
X0185581Y0074737D01*
X0185442Y0074689D01*
X0185305Y0074638D01*
X0185169Y0074582D01*
X0185034Y0074523D01*
X0184902Y0074461D01*
X0184770Y0074395D01*
X0184641Y0074326D01*
X0184514Y0074253D01*
X0184388Y0074177D01*
X0184265Y0074097D01*
X0184144Y0074014D01*
X0184025Y0073929D01*
X0183908Y0073839D01*
X0183794Y0073747D01*
X0183682Y0073652D01*
X0183573Y0073554D01*
X0183467Y0073453D01*
X0183363Y0073349D01*
X0183262Y0073243D01*
X0183164Y0073134D01*
X0183069Y0073022D01*
X0182977Y0072908D01*
X0182887Y0072791D01*
X0182802Y0072672D01*
X0182719Y0072551D01*
X0182639Y0072428D01*
X0182563Y0072302D01*
X0182490Y0072175D01*
X0182421Y0072046D01*
X0182355Y0071914D01*
X0182293Y0071782D01*
X0182234Y0071647D01*
X0182178Y0071511D01*
X0182127Y0071374D01*
X0182079Y0071235D01*
X0182035Y0071095D01*
X0181994Y0070954D01*
X0181957Y0070812D01*
X0181925Y0070669D01*
X0181895Y0070525D01*
X0181870Y0070381D01*
X0181849Y0070236D01*
X0181831Y0070090D01*
X0181818Y0069944D01*
X0181808Y0069797D01*
X0181802Y0069651D01*
X0181800Y0069504D01*
X0181802Y0069357D01*
X0181808Y0069211D01*
X0181818Y0069064D01*
X0181831Y0068918D01*
X0181849Y0068772D01*
X0181870Y0068627D01*
X0181895Y0068483D01*
X0181925Y0068339D01*
X0181957Y0068196D01*
X0181994Y0068054D01*
X0182035Y0067913D01*
X0182079Y0067773D01*
X0182127Y0067634D01*
X0182178Y0067497D01*
X0182234Y0067361D01*
X0182293Y0067226D01*
X0182355Y0067094D01*
X0182421Y0066962D01*
X0182490Y0066833D01*
X0182563Y0066706D01*
X0182639Y0066580D01*
X0182719Y0066457D01*
X0182802Y0066336D01*
X0182887Y0066217D01*
X0182977Y0066100D01*
X0183069Y0065986D01*
X0183164Y0065874D01*
X0183262Y0065765D01*
X0183363Y0065659D01*
X0183467Y0065555D01*
X0183573Y0065454D01*
X0183682Y0065356D01*
X0183794Y0065261D01*
X0183908Y0065169D01*
X0184025Y0065079D01*
X0184144Y0064994D01*
X0184265Y0064911D01*
X0184388Y0064831D01*
X0184514Y0064755D01*
X0184641Y0064682D01*
X0184770Y0064613D01*
X0184902Y0064547D01*
X0185034Y0064485D01*
X0185169Y0064426D01*
X0185305Y0064370D01*
X0185442Y0064319D01*
X0185581Y0064271D01*
X0185721Y0064227D01*
X0185862Y0064186D01*
X0186004Y0064149D01*
X0186147Y0064117D01*
X0186291Y0064087D01*
X0186435Y0064062D01*
X0186580Y0064041D01*
X0186726Y0064023D01*
X0186872Y0064010D01*
X0187019Y0064000D01*
X0187165Y0063994D01*
X0187312Y0063992D01*
X0215019Y0085587D02*
X0215019Y0036768D01*
X0251239Y0036768D01*
X0251239Y0085587D01*
X0215019Y0085587D01*
X0251239Y0085587D02*
X0257204Y0085587D01*
X0257204Y0036768D01*
X0251239Y0036768D01*
D15*
X0187615Y0056598D02*
X0136615Y0056598D01*
X0127192Y0048724D02*
X0076192Y0048724D01*
D16*
X0079192Y0047074D03*
X0084192Y0047074D03*
X0089192Y0047074D03*
X0094192Y0047074D03*
X0099192Y0047074D03*
X0104192Y0047074D03*
X0109192Y0047074D03*
X0114192Y0047074D03*
X0119192Y0047074D03*
X0124192Y0047074D03*
X0139615Y0054948D03*
X0144615Y0054948D03*
X0149615Y0054948D03*
X0154615Y0054948D03*
X0159615Y0054948D03*
X0164615Y0054948D03*
X0169615Y0054948D03*
X0174615Y0054948D03*
X0179615Y0054948D03*
X0184615Y0054948D03*
X0184615Y0084848D03*
X0179615Y0084848D03*
X0174615Y0084848D03*
X0169615Y0084848D03*
X0164615Y0084848D03*
X0159615Y0084848D03*
X0154615Y0084848D03*
X0149615Y0084848D03*
X0144615Y0084848D03*
X0139615Y0084848D03*
X0124192Y0076974D03*
X0119192Y0076974D03*
X0114192Y0076974D03*
X0109192Y0076974D03*
X0104192Y0076974D03*
X0099192Y0076974D03*
X0094192Y0076974D03*
X0089192Y0076974D03*
X0084192Y0076974D03*
X0079192Y0076974D03*
D17*
X0081545Y0112610D02*
X0086545Y0112610D01*
X0086545Y0114110D02*
X0081545Y0114110D01*
X0079045Y0116610D01*
X0079045Y0131610D01*
X0081545Y0134110D01*
X0086545Y0134110D01*
X0089045Y0131610D01*
X0089045Y0116610D01*
X0091545Y0114110D01*
X0096545Y0114110D01*
X0099045Y0116610D01*
X0099045Y0131610D01*
X0101545Y0134110D01*
X0106545Y0134110D01*
X0109045Y0131610D01*
X0109045Y0116610D01*
X0111545Y0114110D01*
X0116545Y0114110D01*
X0119045Y0116610D01*
X0119045Y0131610D01*
X0121545Y0134110D01*
X0126545Y0134110D01*
X0129045Y0131610D01*
X0129045Y0116610D01*
X0131545Y0114110D01*
X0136545Y0114110D01*
X0139045Y0116610D01*
X0139045Y0131610D01*
X0141545Y0134110D01*
X0146545Y0134110D01*
X0149045Y0131610D01*
X0149045Y0116610D01*
X0146545Y0114110D01*
X0141545Y0114110D01*
X0139045Y0116610D01*
X0149045Y0116610D02*
X0151545Y0114110D01*
X0156545Y0114110D01*
X0159045Y0116610D01*
X0159045Y0131610D01*
X0161545Y0134110D01*
X0166545Y0134110D01*
X0169045Y0131610D01*
X0171545Y0134110D01*
X0176545Y0134110D01*
X0179045Y0131610D01*
X0179045Y0116610D01*
X0176545Y0114110D01*
X0171545Y0114110D01*
X0169045Y0116610D01*
X0169045Y0131610D01*
X0159045Y0131610D02*
X0156545Y0134110D01*
X0151545Y0134110D01*
X0149045Y0131610D01*
X0139045Y0131610D02*
X0136545Y0134110D01*
X0131545Y0134110D01*
X0129045Y0131610D01*
X0119045Y0131610D02*
X0116545Y0134110D01*
X0111545Y0134110D01*
X0109045Y0131610D01*
X0099045Y0131610D02*
X0096545Y0134110D01*
X0091545Y0134110D01*
X0089045Y0131610D01*
X0101545Y0144110D02*
X0106545Y0144110D01*
X0109045Y0146610D01*
X0111545Y0144110D01*
X0116545Y0144110D01*
X0119045Y0146610D01*
X0121545Y0144110D01*
X0126545Y0144110D01*
X0129045Y0146610D01*
X0129045Y0151610D01*
X0126545Y0154110D01*
X0121545Y0154110D01*
X0119045Y0151610D01*
X0116545Y0154110D01*
X0111545Y0154110D01*
X0109045Y0151610D01*
X0106545Y0154110D01*
X0101545Y0154110D01*
X0099045Y0151610D01*
X0099045Y0146610D01*
X0101545Y0144110D01*
X0071446Y0161571D02*
X0071446Y0166571D01*
X0068946Y0169071D01*
X0071446Y0171571D01*
X0071446Y0176571D01*
X0068946Y0179071D01*
X0063946Y0179071D01*
X0061446Y0176571D01*
X0058946Y0179071D01*
X0053946Y0179071D01*
X0051446Y0176571D01*
X0048946Y0179071D01*
X0043946Y0179071D01*
X0041446Y0176571D01*
X0038946Y0179071D01*
X0033946Y0179071D01*
X0031446Y0176571D01*
X0031446Y0171571D01*
X0033946Y0169071D01*
X0038946Y0169071D01*
X0041446Y0171571D01*
X0043946Y0169071D01*
X0048946Y0169071D01*
X0051446Y0171571D01*
X0053946Y0169071D01*
X0058946Y0169071D01*
X0061446Y0171571D01*
X0063946Y0169071D01*
X0068946Y0169071D01*
X0063946Y0169071D01*
X0061446Y0166571D01*
X0058946Y0169071D01*
X0053946Y0169071D01*
X0051446Y0166571D01*
X0048946Y0169071D01*
X0043946Y0169071D01*
X0041446Y0166571D01*
X0038946Y0169071D01*
X0033946Y0169071D01*
X0031446Y0166571D01*
X0031446Y0161571D01*
X0033946Y0159071D01*
X0038946Y0159071D01*
X0041446Y0161571D01*
X0043946Y0159071D01*
X0048946Y0159071D01*
X0051446Y0161571D01*
X0053946Y0159071D01*
X0058946Y0159071D01*
X0061446Y0161571D01*
X0063946Y0159071D01*
X0068946Y0159071D01*
X0071446Y0161571D01*
X0068946Y0179071D02*
X0063946Y0179071D01*
X0061446Y0181571D01*
X0058946Y0179071D01*
X0053946Y0179071D01*
X0051446Y0181571D01*
X0048946Y0179071D01*
X0043946Y0179071D01*
X0041446Y0181571D01*
X0038946Y0179071D01*
X0033946Y0179071D01*
X0031446Y0181571D01*
X0031446Y0186571D01*
X0033946Y0189071D01*
X0038946Y0189071D01*
X0041446Y0186571D01*
X0043946Y0189071D01*
X0048946Y0189071D01*
X0051446Y0186571D01*
X0053946Y0189071D01*
X0058946Y0189071D01*
X0061446Y0186571D01*
X0063946Y0189071D01*
X0068946Y0189071D01*
X0071446Y0186571D01*
X0071446Y0181571D01*
X0068946Y0179071D01*
X0059025Y0144110D02*
X0054025Y0144110D01*
X0051525Y0141610D01*
X0049025Y0144110D01*
X0044025Y0144110D01*
X0041525Y0141610D01*
X0039025Y0144110D01*
X0034025Y0144110D01*
X0031525Y0141610D01*
X0031525Y0136610D01*
X0034025Y0134110D01*
X0039025Y0134110D01*
X0041525Y0136610D01*
X0044025Y0134110D01*
X0049025Y0134110D01*
X0051525Y0136610D01*
X0054025Y0134110D01*
X0059025Y0134110D01*
X0061525Y0136610D01*
X0061525Y0141610D01*
X0059025Y0144110D01*
X0086545Y0114110D02*
X0089045Y0116610D01*
X0099045Y0116610D02*
X0101545Y0114110D01*
X0106545Y0114110D01*
X0109045Y0116610D01*
X0119045Y0116610D02*
X0121545Y0114110D01*
X0126545Y0114110D01*
X0129045Y0116610D01*
X0159045Y0116610D02*
X0161545Y0114110D01*
X0166545Y0114110D01*
X0169045Y0116610D01*
X0170324Y0159071D02*
X0175324Y0159071D01*
X0177824Y0161571D01*
X0180324Y0159071D01*
X0185324Y0159071D01*
X0187824Y0161571D01*
X0190324Y0159071D01*
X0195324Y0159071D01*
X0197824Y0161571D01*
X0200324Y0159071D01*
X0205324Y0159071D01*
X0207824Y0161571D01*
X0210324Y0159071D01*
X0215324Y0159071D01*
X0217824Y0161571D01*
X0220324Y0159071D01*
X0225324Y0159071D01*
X0227824Y0161571D01*
X0227824Y0166571D01*
X0225324Y0169071D01*
X0220324Y0169071D01*
X0217824Y0171571D01*
X0215324Y0169071D01*
X0210324Y0169071D01*
X0207824Y0171571D01*
X0205324Y0169071D01*
X0200324Y0169071D01*
X0197824Y0171571D01*
X0195324Y0169071D01*
X0190324Y0169071D01*
X0187824Y0171571D01*
X0185324Y0169071D01*
X0180324Y0169071D01*
X0177824Y0171571D01*
X0175324Y0169071D01*
X0170324Y0169071D01*
X0167824Y0171571D01*
X0165324Y0169071D01*
X0160324Y0169071D01*
X0157824Y0171571D01*
X0155324Y0169071D01*
X0150324Y0169071D01*
X0147824Y0171571D01*
X0145324Y0169071D01*
X0140324Y0169071D01*
X0137824Y0171571D01*
X0137824Y0176571D01*
X0140324Y0179071D01*
X0145324Y0179071D01*
X0147824Y0176571D01*
X0150324Y0179071D01*
X0155324Y0179071D01*
X0157824Y0176571D01*
X0160324Y0179071D01*
X0165324Y0179071D01*
X0167824Y0176571D01*
X0170324Y0179071D01*
X0175324Y0179071D01*
X0177824Y0176571D01*
X0180324Y0179071D01*
X0185324Y0179071D01*
X0187824Y0176571D01*
X0190324Y0179071D01*
X0195324Y0179071D01*
X0197824Y0176571D01*
X0200324Y0179071D01*
X0205324Y0179071D01*
X0207824Y0176571D01*
X0210324Y0179071D01*
X0215324Y0179071D01*
X0217824Y0176571D01*
X0220324Y0179071D01*
X0225324Y0179071D01*
X0227824Y0176571D01*
X0227824Y0171571D01*
X0225324Y0169071D01*
X0220324Y0169071D01*
X0217824Y0166571D01*
X0215324Y0169071D01*
X0210324Y0169071D01*
X0207824Y0166571D01*
X0205324Y0169071D01*
X0200324Y0169071D01*
X0197824Y0166571D01*
X0195324Y0169071D01*
X0190324Y0169071D01*
X0187824Y0166571D01*
X0185324Y0169071D01*
X0180324Y0169071D01*
X0177824Y0166571D01*
X0175324Y0169071D01*
X0170324Y0169071D01*
X0167824Y0166571D01*
X0165324Y0169071D01*
X0160324Y0169071D01*
X0157824Y0166571D01*
X0155324Y0169071D01*
X0150324Y0169071D01*
X0147824Y0166571D01*
X0145324Y0169071D01*
X0140324Y0169071D01*
X0137824Y0166571D01*
X0137824Y0161571D01*
X0140324Y0159071D01*
X0145324Y0159071D01*
X0147824Y0161571D01*
X0150324Y0159071D01*
X0155324Y0159071D01*
X0157824Y0161571D01*
X0160324Y0159071D01*
X0165324Y0159071D01*
X0167824Y0161571D01*
X0170324Y0159071D01*
X0170324Y0179071D02*
X0175324Y0179071D01*
X0177824Y0181571D01*
X0180324Y0179071D01*
X0185324Y0179071D01*
X0187824Y0181571D01*
X0190324Y0179071D01*
X0195324Y0179071D01*
X0197824Y0181571D01*
X0200324Y0179071D01*
X0205324Y0179071D01*
X0207824Y0181571D01*
X0210324Y0179071D01*
X0215324Y0179071D01*
X0217824Y0181571D01*
X0220324Y0179071D01*
X0225324Y0179071D01*
X0227824Y0181571D01*
X0227824Y0186571D01*
X0225324Y0189071D01*
X0220324Y0189071D01*
X0217824Y0186571D01*
X0215324Y0189071D01*
X0210324Y0189071D01*
X0207824Y0186571D01*
X0205324Y0189071D01*
X0200324Y0189071D01*
X0197824Y0186571D01*
X0195324Y0189071D01*
X0190324Y0189071D01*
X0187824Y0186571D01*
X0185324Y0189071D01*
X0180324Y0189071D01*
X0177824Y0186571D01*
X0175324Y0189071D01*
X0170324Y0189071D01*
X0167824Y0186571D01*
X0165324Y0189071D01*
X0160324Y0189071D01*
X0157824Y0186571D01*
X0155324Y0189071D01*
X0150324Y0189071D01*
X0147824Y0186571D01*
X0145324Y0189071D01*
X0140324Y0189071D01*
X0137824Y0186571D01*
X0137824Y0181571D01*
X0140324Y0179071D01*
X0145324Y0179071D01*
X0147824Y0181571D01*
X0150324Y0179071D01*
X0155324Y0179071D01*
X0157824Y0181571D01*
X0160324Y0179071D01*
X0165324Y0179071D01*
X0167824Y0181571D01*
X0170324Y0179071D01*
X0019871Y0141610D02*
X0019871Y0136610D01*
X0017371Y0134110D01*
X0019871Y0131610D01*
X0019871Y0126610D01*
X0017371Y0124110D01*
X0012371Y0124110D01*
X0009871Y0126610D01*
X0009871Y0131610D01*
X0012371Y0134110D01*
X0009871Y0136610D01*
X0009871Y0141610D01*
X0012371Y0144110D01*
X0017371Y0144110D01*
X0019871Y0141610D01*
X0030545Y0026280D02*
X0037045Y0026280D01*
M02*
