G75*
%MOIN*%
%OFA0B0*%
%FSLAX25Y25*%
%IPPOS*%
%LPD*%
%AMOC8*
5,1,8,0,0,1.08239X$1,22.5*
%
%ADD10C,0.07400*%
%ADD11R,0.06496X0.06496*%
%ADD12C,0.07087*%
%ADD13C,0.06496*%
%ADD14R,0.02600X0.08000*%
%ADD15C,0.02400*%
%ADD16C,0.01000*%
%ADD17C,0.04750*%
D10*
X0034045Y0009780D03*
X0044045Y0009780D03*
X0054045Y0009780D03*
X0064045Y0009780D03*
X0074045Y0009780D03*
X0084045Y0009780D03*
X0094045Y0009780D03*
X0104045Y0009780D03*
X0114045Y0009780D03*
X0124045Y0009780D03*
X0134045Y0009780D03*
X0144045Y0009780D03*
X0154045Y0009780D03*
X0164045Y0009780D03*
X0174045Y0009780D03*
X0184045Y0009780D03*
X0194045Y0009780D03*
X0204045Y0009780D03*
X0214045Y0009780D03*
X0224045Y0009780D03*
X0224045Y0019780D03*
X0214045Y0019780D03*
X0204045Y0019780D03*
X0194045Y0019780D03*
X0184045Y0019780D03*
X0174045Y0019780D03*
X0164045Y0019780D03*
X0154045Y0019780D03*
X0144045Y0019780D03*
X0134045Y0019780D03*
X0124045Y0019780D03*
X0114045Y0019780D03*
X0104045Y0019780D03*
X0094045Y0019780D03*
X0084045Y0019780D03*
X0074045Y0019780D03*
X0064045Y0019780D03*
X0054045Y0019780D03*
X0044045Y0019780D03*
X0034045Y0019780D03*
X0084045Y0119110D03*
X0094045Y0119110D03*
X0104045Y0119110D03*
X0114045Y0119110D03*
X0124045Y0119110D03*
X0134045Y0119110D03*
X0144045Y0119110D03*
X0154045Y0119110D03*
X0164045Y0119110D03*
X0174045Y0119110D03*
X0174045Y0129110D03*
X0164045Y0129110D03*
X0154045Y0129110D03*
X0144045Y0129110D03*
X0134045Y0129110D03*
X0124045Y0129110D03*
X0114045Y0129110D03*
X0104045Y0129110D03*
X0094045Y0129110D03*
X0084045Y0129110D03*
X0104045Y0149110D03*
X0114045Y0149110D03*
X0124045Y0149110D03*
X0142824Y0164071D03*
X0152824Y0164071D03*
X0162824Y0164071D03*
X0172824Y0164071D03*
X0182824Y0164071D03*
X0192824Y0164071D03*
X0202824Y0164071D03*
X0212824Y0164071D03*
X0222824Y0164071D03*
X0222824Y0174071D03*
X0212824Y0174071D03*
X0202824Y0174071D03*
X0192824Y0174071D03*
X0182824Y0174071D03*
X0172824Y0174071D03*
X0162824Y0174071D03*
X0152824Y0174071D03*
X0142824Y0174071D03*
X0142824Y0184071D03*
X0152824Y0184071D03*
X0162824Y0184071D03*
X0172824Y0184071D03*
X0182824Y0184071D03*
X0192824Y0184071D03*
X0202824Y0184071D03*
X0212824Y0184071D03*
X0222824Y0184071D03*
X0066446Y0184071D03*
X0056446Y0184071D03*
X0046446Y0184071D03*
X0036446Y0184071D03*
X0036446Y0174071D03*
X0046446Y0174071D03*
X0056446Y0174071D03*
X0066446Y0174071D03*
X0066446Y0164071D03*
X0056446Y0164071D03*
X0046446Y0164071D03*
X0036446Y0164071D03*
X0036525Y0139110D03*
X0046525Y0139110D03*
X0056525Y0139110D03*
X0014871Y0139110D03*
X0014871Y0129110D03*
D11*
X0244704Y0051177D03*
D12*
X0244704Y0071177D03*
D13*
X0224704Y0071177D03*
X0224704Y0051177D03*
D14*
X0184615Y0050098D03*
X0179615Y0050098D03*
X0174615Y0050098D03*
X0169615Y0050098D03*
X0164615Y0050098D03*
X0159615Y0050098D03*
X0154615Y0050098D03*
X0149615Y0050098D03*
X0144615Y0050098D03*
X0139615Y0050098D03*
X0139615Y0089698D03*
X0144615Y0089698D03*
X0149615Y0089698D03*
X0154615Y0089698D03*
X0159615Y0089698D03*
X0164615Y0089698D03*
X0169615Y0089698D03*
X0174615Y0089698D03*
X0179615Y0089698D03*
X0184615Y0089698D03*
D15*
X0027864Y0027378D02*
X0027864Y0015567D01*
X0033651Y0009780D01*
X0034045Y0009780D01*
X0044045Y0009780D01*
X0034045Y0019780D02*
X0034045Y0109937D01*
X0014871Y0129110D01*
X0014871Y0139110D02*
X0015344Y0139110D01*
X0040856Y0113598D01*
X0040856Y0076197D01*
X0054832Y0084465D02*
X0073533Y0084465D01*
X0084045Y0119110D02*
X0084045Y0129110D01*
X0074714Y0135843D02*
X0074714Y0136039D01*
X0061722Y0149031D01*
X0036776Y0149031D01*
X0036446Y0149361D01*
X0036446Y0164071D01*
X0036446Y0174071D01*
X0036446Y0184071D01*
X0046446Y0184071D02*
X0046446Y0187693D01*
X0051797Y0192650D01*
X0105111Y0192650D01*
X0123927Y0173835D01*
X0142588Y0173835D01*
X0142824Y0174071D01*
X0152824Y0174071D01*
X0162824Y0174071D01*
X0172824Y0174071D01*
X0182824Y0174071D01*
X0192824Y0174071D01*
X0202824Y0174071D01*
X0212824Y0174071D01*
X0222824Y0174071D01*
X0222824Y0164071D02*
X0212824Y0164071D01*
X0202824Y0164071D01*
X0192824Y0164071D01*
X0182824Y0164071D01*
X0172824Y0164071D01*
X0162824Y0164071D01*
X0164045Y0162850D01*
X0164045Y0138551D01*
X0164194Y0138402D01*
X0180029Y0138402D01*
X0184163Y0134268D01*
X0184310Y0100852D01*
X0179684Y0097900D01*
X0179684Y0089767D01*
X0179615Y0089698D01*
X0179615Y0063677D01*
X0174911Y0060252D01*
X0141446Y0060449D01*
X0139724Y0058579D01*
X0139724Y0054196D01*
X0139727Y0050606D01*
X0139107Y0050606D01*
X0139615Y0050098D01*
X0139107Y0050606D02*
X0132588Y0050606D01*
X0184615Y0050098D02*
X0184615Y0059602D01*
X0184360Y0059858D01*
X0184360Y0070901D01*
X0184636Y0071177D01*
X0184627Y0071177D01*
X0184419Y0071386D01*
X0184566Y0081479D01*
X0184566Y0089648D01*
X0184615Y0089698D01*
X0184310Y0100852D02*
X0224862Y0100852D01*
X0235147Y0089976D01*
X0240659Y0087220D01*
X0251682Y0078953D01*
X0251682Y0055528D01*
X0247332Y0051177D01*
X0244704Y0051177D01*
X0244596Y0051069D01*
X0244596Y0040567D01*
X0224045Y0020016D01*
X0224045Y0019780D01*
X0224704Y0051177D02*
X0244704Y0051177D01*
X0244704Y0071177D02*
X0224704Y0071177D01*
X0184636Y0071177D01*
X0164045Y0129110D02*
X0164045Y0138551D01*
X0162824Y0164071D02*
X0152824Y0164071D01*
X0142824Y0164071D01*
X0142745Y0163992D01*
X0127470Y0163992D01*
X0124045Y0160567D01*
X0124045Y0149110D01*
X0124045Y0139321D01*
X0123913Y0139189D01*
X0106013Y0139189D01*
X0104045Y0137220D01*
X0104045Y0129110D01*
X0124045Y0129110D02*
X0124045Y0139321D01*
X0046446Y0164071D02*
X0046446Y0174071D01*
X0046446Y0184071D01*
X0036446Y0149361D02*
X0036446Y0148226D01*
X0036464Y0148244D01*
X0036446Y0148226D02*
X0036446Y0138087D01*
X0036525Y0139110D01*
D16*
X0046525Y0139110D02*
X0046643Y0139110D01*
X0066249Y0119504D01*
X0066249Y0107496D01*
X0072155Y0104937D02*
X0072155Y0123835D01*
X0056879Y0139110D01*
X0056525Y0139110D01*
X0099045Y0131181D02*
X0099045Y0102260D01*
X0109163Y0092142D01*
X0114084Y0096079D02*
X0109045Y0101118D01*
X0109045Y0121181D01*
X0108966Y0121260D01*
X0108966Y0124031D01*
X0114045Y0129110D01*
X0099123Y0131260D02*
X0099045Y0131181D01*
X0099123Y0131260D02*
X0099123Y0143913D01*
X0104045Y0148835D01*
X0104045Y0149110D01*
X0149123Y0124622D02*
X0149123Y0121260D01*
X0149045Y0121181D01*
X0149045Y0110173D01*
X0139478Y0100606D01*
X0139478Y0089835D01*
X0139615Y0089698D01*
X0144448Y0089865D02*
X0144448Y0095672D01*
X0144399Y0100409D01*
X0154045Y0110055D01*
X0154045Y0119110D01*
X0149123Y0124622D02*
X0153612Y0129110D01*
X0154045Y0129110D01*
X0164045Y0119110D02*
X0164045Y0114937D01*
X0149714Y0100606D01*
X0149615Y0095406D01*
X0149615Y0089698D01*
X0144615Y0089698D02*
X0144448Y0089865D01*
X0154615Y0089698D02*
X0154615Y0097240D01*
X0154419Y0097437D01*
X0154438Y0097457D01*
X0159615Y0103303D02*
X0159615Y0089698D01*
X0164615Y0089698D02*
X0164615Y0097319D01*
X0164281Y0097654D01*
X0159615Y0103303D02*
X0159163Y0103756D01*
X0169615Y0089698D02*
X0169645Y0086578D01*
X0169399Y0074228D01*
X0169419Y0076413D01*
X0174419Y0073343D02*
X0174419Y0089501D01*
X0174615Y0089698D01*
X0174419Y0073343D02*
X0174320Y0067142D01*
X0174615Y0050098D02*
X0174320Y0049802D01*
X0174320Y0031906D01*
X0171367Y0028756D01*
X0132982Y0028756D01*
X0124045Y0020016D01*
X0124045Y0019780D01*
X0119045Y0017708D02*
X0119045Y0028795D01*
X0121761Y0031118D01*
X0167627Y0031118D01*
X0169399Y0033283D01*
X0169399Y0049881D01*
X0169615Y0050098D01*
X0164615Y0050098D02*
X0164478Y0049960D01*
X0164478Y0035843D01*
X0162706Y0033480D01*
X0111919Y0033480D01*
X0109045Y0031197D01*
X0109045Y0017708D01*
X0108966Y0017630D01*
X0108966Y0014780D01*
X0104045Y0009858D01*
X0104045Y0009780D01*
X0114045Y0009780D02*
X0114045Y0010016D01*
X0119005Y0014976D01*
X0119005Y0017669D01*
X0119045Y0017708D01*
X0104045Y0019780D02*
X0104045Y0030921D01*
X0109753Y0035843D01*
X0157785Y0035843D01*
X0159360Y0038205D01*
X0159360Y0049842D01*
X0159615Y0050098D01*
X0154615Y0050098D02*
X0154438Y0049920D01*
X0154438Y0040567D01*
X0152470Y0038205D01*
X0101486Y0038205D01*
X0089045Y0027535D01*
X0089045Y0017708D01*
X0089084Y0017669D01*
X0089084Y0014780D01*
X0084084Y0009780D01*
X0084045Y0009780D01*
X0084045Y0019780D02*
X0084045Y0027260D01*
X0099517Y0040764D01*
X0147549Y0040764D01*
X0149320Y0042929D01*
X0149419Y0044586D01*
X0149419Y0049901D01*
X0149615Y0050098D01*
X0144615Y0050098D02*
X0144202Y0049684D01*
X0144202Y0044701D01*
X0144104Y0044714D01*
X0144202Y0044701D02*
X0142234Y0043126D01*
X0085541Y0042929D01*
X0064360Y0019780D01*
X0064045Y0019780D01*
X0144045Y0009898D02*
X0148927Y0014780D01*
X0148927Y0017590D01*
X0149045Y0017708D01*
X0149045Y0024346D01*
X0151092Y0026394D01*
X0177076Y0026394D01*
X0179241Y0028559D01*
X0179241Y0049724D01*
X0179615Y0050098D01*
X0214045Y0019780D02*
X0214360Y0019780D01*
X0234655Y0041256D01*
X0224045Y0019780D02*
X0224005Y0019780D01*
X0144045Y0009898D02*
X0144045Y0009780D01*
D17*
X0132588Y0050606D03*
X0169399Y0074228D03*
X0174320Y0067142D03*
X0184360Y0059858D03*
X0164281Y0097654D03*
X0159163Y0103756D03*
X0154438Y0097457D03*
X0114084Y0096079D03*
X0109163Y0092142D03*
X0073533Y0084465D03*
X0054832Y0084465D03*
X0040856Y0076197D03*
X0072155Y0104937D03*
X0066249Y0107496D03*
X0074714Y0135843D03*
X0027864Y0027378D03*
X0234655Y0041256D03*
M02*
