G75*
%MOIN*%
%OFA0B0*%
%FSLAX25Y25*%
%IPPOS*%
%LPD*%
%AMOC8*
5,1,8,0,0,1.08239X$1,22.5*
%
%ADD10C,0.11824*%
%ADD11C,0.08200*%
%ADD12R,0.07296X0.07296*%
%ADD13C,0.07887*%
%ADD14C,0.07296*%
%ADD15R,0.03400X0.08800*%
%ADD16C,0.05550*%
D10*
X0014871Y0014780D03*
X0014871Y0105331D03*
X0014871Y0184071D03*
X0243218Y0184071D03*
X0243218Y0105331D03*
X0243218Y0014780D03*
D11*
X0224045Y0019780D03*
X0214045Y0019780D03*
X0204045Y0019780D03*
X0194045Y0019780D03*
X0184045Y0019780D03*
X0174045Y0019780D03*
X0164045Y0019780D03*
X0154045Y0019780D03*
X0144045Y0019780D03*
X0134045Y0019780D03*
X0124045Y0019780D03*
X0114045Y0019780D03*
X0104045Y0019780D03*
X0094045Y0019780D03*
X0084045Y0019780D03*
X0074045Y0019780D03*
X0064045Y0019780D03*
X0054045Y0019780D03*
X0044045Y0019780D03*
X0034045Y0019780D03*
X0034045Y0009780D03*
X0044045Y0009780D03*
X0054045Y0009780D03*
X0064045Y0009780D03*
X0074045Y0009780D03*
X0084045Y0009780D03*
X0094045Y0009780D03*
X0104045Y0009780D03*
X0114045Y0009780D03*
X0124045Y0009780D03*
X0134045Y0009780D03*
X0144045Y0009780D03*
X0154045Y0009780D03*
X0164045Y0009780D03*
X0174045Y0009780D03*
X0184045Y0009780D03*
X0194045Y0009780D03*
X0204045Y0009780D03*
X0214045Y0009780D03*
X0224045Y0009780D03*
X0174045Y0119110D03*
X0164045Y0119110D03*
X0154045Y0119110D03*
X0144045Y0119110D03*
X0134045Y0119110D03*
X0124045Y0119110D03*
X0114045Y0119110D03*
X0104045Y0119110D03*
X0094045Y0119110D03*
X0084045Y0119110D03*
X0084045Y0129110D03*
X0094045Y0129110D03*
X0104045Y0129110D03*
X0114045Y0129110D03*
X0124045Y0129110D03*
X0134045Y0129110D03*
X0144045Y0129110D03*
X0154045Y0129110D03*
X0164045Y0129110D03*
X0174045Y0129110D03*
X0172824Y0164071D03*
X0162824Y0164071D03*
X0152824Y0164071D03*
X0142824Y0164071D03*
X0142824Y0174071D03*
X0152824Y0174071D03*
X0162824Y0174071D03*
X0172824Y0174071D03*
X0182824Y0174071D03*
X0192824Y0174071D03*
X0202824Y0174071D03*
X0212824Y0174071D03*
X0222824Y0174071D03*
X0222824Y0184071D03*
X0212824Y0184071D03*
X0202824Y0184071D03*
X0192824Y0184071D03*
X0182824Y0184071D03*
X0172824Y0184071D03*
X0162824Y0184071D03*
X0152824Y0184071D03*
X0142824Y0184071D03*
X0182824Y0164071D03*
X0192824Y0164071D03*
X0202824Y0164071D03*
X0212824Y0164071D03*
X0222824Y0164071D03*
X0124045Y0149110D03*
X0114045Y0149110D03*
X0104045Y0149110D03*
X0066446Y0164071D03*
X0056446Y0164071D03*
X0046446Y0164071D03*
X0036446Y0164071D03*
X0036446Y0174071D03*
X0046446Y0174071D03*
X0056446Y0174071D03*
X0066446Y0174071D03*
X0066446Y0184071D03*
X0056446Y0184071D03*
X0046446Y0184071D03*
X0036446Y0184071D03*
X0036525Y0139110D03*
X0046525Y0139110D03*
X0056525Y0139110D03*
X0014871Y0139110D03*
X0014871Y0129110D03*
D12*
X0244704Y0051177D03*
D13*
X0244704Y0071177D03*
D14*
X0224704Y0071177D03*
X0224704Y0051177D03*
D15*
X0184615Y0050098D03*
X0179615Y0050098D03*
X0174615Y0050098D03*
X0169615Y0050098D03*
X0164615Y0050098D03*
X0159615Y0050098D03*
X0154615Y0050098D03*
X0149615Y0050098D03*
X0144615Y0050098D03*
X0139615Y0050098D03*
X0139615Y0089698D03*
X0144615Y0089698D03*
X0149615Y0089698D03*
X0154615Y0089698D03*
X0159615Y0089698D03*
X0164615Y0089698D03*
X0169615Y0089698D03*
X0174615Y0089698D03*
X0179615Y0089698D03*
X0184615Y0089698D03*
D16*
X0169399Y0074228D03*
X0174320Y0067142D03*
X0184360Y0059858D03*
X0164281Y0097654D03*
X0159163Y0103756D03*
X0154438Y0097457D03*
X0114084Y0096079D03*
X0109163Y0092142D03*
X0073533Y0084465D03*
X0054832Y0084465D03*
X0040856Y0076197D03*
X0072155Y0104937D03*
X0066249Y0107496D03*
X0074714Y0135843D03*
X0132588Y0050606D03*
X0234655Y0041256D03*
X0027864Y0027378D03*
M02*
