%
M48
M72
T01C0.0315
T02C0.0400
T03C0.0433
T04C0.0472
T05C0.1102
%
T01
X2786Y2738
X4086Y7620
X5483Y8446
X7353Y8446
X7215Y10494
X6625Y10750
X7471Y13584
X11408Y9608
X10916Y9214
X15444Y9746
X15916Y10376
X16428Y9765
X16940Y7423
X17432Y6714
X18436Y5986
X23465Y4126
X13259Y5061
T02
X13404Y1978
X12404Y1978
X11404Y1978
X10404Y1978
X9404Y1978
X8404Y1978
X7404Y1978
X6404Y1978
X5404Y1978
X4404Y1978
X3404Y1978
X3404Y978
X4404Y978
X5404Y978
X6404Y978
X7404Y978
X8404Y978
X9404Y978
X10404Y978
X11404Y978
X12404Y978
X13404Y978
X14404Y978
X15404Y978
X16404Y978
X17404Y978
X18404Y978
X19404Y978
X20404Y978
X21404Y978
X22404Y978
X22404Y1978
X21404Y1978
X20404Y1978
X19404Y1978
X18404Y1978
X17404Y1978
X16404Y1978
X15404Y1978
X14404Y1978
X14404Y11911
X13404Y11911
X12404Y11911
X11404Y11911
X10404Y11911
X9404Y11911
X8404Y11911
X8404Y12911
X9404Y12911
X10404Y12911
X11404Y12911
X12404Y12911
X13404Y12911
X14404Y12911
X15404Y12911
X16404Y12911
X17404Y12911
X17404Y11911
X16404Y11911
X15404Y11911
X12404Y14911
X11404Y14911
X10404Y14911
X6645Y16407
X5645Y16407
X4645Y16407
X3645Y16407
X3645Y17407
X4645Y17407
X5645Y17407
X6645Y17407
X6645Y18407
X5645Y18407
X4645Y18407
X3645Y18407
X3652Y13911
X4652Y13911
X5652Y13911
X1487Y13911
X1487Y12911
X14282Y16407
X15282Y16407
X16282Y16407
X17282Y16407
X18282Y16407
X19282Y16407
X20282Y16407
X21282Y16407
X22282Y16407
X22282Y17407
X21282Y17407
X20282Y17407
X19282Y17407
X18282Y17407
X17282Y17407
X16282Y17407
X15282Y17407
X14282Y17407
X14282Y18407
X15282Y18407
X16282Y18407
X17282Y18407
X18282Y18407
X19282Y18407
X20282Y18407
X21282Y18407
X22282Y18407
T03
X22470Y7118
X22470Y5118
X24470Y5118
T04
X24470Y7118
T05
X1487Y1478
X1487Y10533
X1487Y18407
X24322Y18407
X24322Y10533
X24322Y1478
M30
